<?xml version="1.0" encoding="UTF-8" standalone="no"?>
<!-- Created with Inkscape (http://www.inkscape.org/) -->

<svg
   xmlns:dc="http://purl.org/dc/elements/1.1/"
   xmlns:cc="http://creativecommons.org/ns#"
   xmlns:rdf="http://www.w3.org/1999/02/22-rdf-syntax-ns#"
   xmlns:svg="http://www.w3.org/2000/svg"
   xmlns="http://www.w3.org/2000/svg"
   xmlns:sodipodi="http://sodipodi.sourceforge.net/DTD/sodipodi-0.dtd"
   xmlns:inkscape="http://www.inkscape.org/namespaces/inkscape"
   id="svg3909"
   version="1.1"
   inkscape:version="0.48.4 r9939"
   width="1481.7643"
   height="2168.3303"
   sodipodi:docname="chestnut.svg">
  <metadata
     id="metadata3915">
    <rdf:RDF>
      <cc:Work
         rdf:about="">
        <dc:format>image/svg+xml</dc:format>
        <dc:type
           rdf:resource="http://purl.org/dc/dcmitype/StillImage" />
        <dc:title></dc:title>
      </cc:Work>
    </rdf:RDF>
  </metadata>
  <defs
     id="defs3913" />
  <sodipodi:namedview
     pagecolor="#ffffff"
     bordercolor="#666666"
     borderopacity="1"
     objecttolerance="10"
     gridtolerance="10"
     guidetolerance="10"
     inkscape:pageopacity="0"
     inkscape:pageshadow="2"
     inkscape:window-width="1918"
     inkscape:window-height="1078"
     id="namedview3911"
     showgrid="false"
     fit-margin-top="0"
     fit-margin-left="0"
     fit-margin-right="0"
     fit-margin-bottom="0"
     inkscape:zoom="0.23025485"
     inkscape:cx="1395.3119"
     inkscape:cy="940.81401"
     inkscape:window-x="0"
     inkscape:window-y="0"
     inkscape:window-maximized="0"
     inkscape:current-layer="svg3909" />
  <g
     id="g4054">
    <path
       style="fill:#a7ca32"
       d="m 473.4657,1598.1467 c -11.16968,8.7938 -28.329,33.303 -49.26822,70.3719 -5.2354,9.2684 -11.8704,20.4196 -14.7445,24.7816 -2.87404,4.3612 -6.92118,11.0526 -8.99353,14.8684 -6.01199,11.0714 -14.02246,23.0607 -16.17832,24.2141 -3.91571,2.0959 -8.98676,1.2838 -12.22897,-1.9586 -2.58388,-2.5839 1.05115,-3.5643 1.48069,-6.7658 0.27623,-2.0594 2.55036,-7.3543 5.0536,-11.7661 2.5033,-4.4118 5.43667,-11.3241 6.51859,-15.3622 1.08197,-4.0372 2.47035,-8.6457 3.0854,-10.2415 1.61046,-4.1778 6.8654,-39.3109 8.51477,-47.5075 0.76796,-3.816 1.33531,-9.615 1.26082,-12.886 -0.0744,-3.2712 0.19663,-13.7978 0.60255,-23.3924 0.78163,-18.4751 0.38243,-22.7008 -2.14482,-22.7008 -0.85996,0 -5.86969,4.4235 -11.13275,9.831 -16.98818,17.4525 -33.60329,31.5081 -52.19291,44.1521 -31.98872,21.7581 -44.98694,27.2997 -64.03618,27.2997 -12.35516,0 -15.74497,-1.1261 -17.71596,-5.8844 -1.46879,-3.5461 7.23046,-2.2519 9.86875,-6.5769 1.40246,-2.2995 5.04053,-4.6925 14.12241,-9.2906 15.9262,-8.0639 21.78356,-12.4603 24.69341,-18.5346 1.26409,-2.6391 6.3194,-8.9628 11.33506,-14.1803 5.75794,-5.9888 4.24811,-20.2876 9.83013,-28.7984 9.65681,-14.7244 21.95777,-38.5826 22.88635,-44.389 1.14782,-7.1784 -5.1518,-24.3195 -13.27875,-36.1317 -6.06237,-8.8115 -21.03605,-21.396 -40.32908,-33.8947 -4.90672,-3.1785 -11.59768,-7.8921 -14.86878,-10.4746 -3.27116,-2.5825 -11.6156,-8.5203 -18.54319,-13.1938 -6.92759,-4.6743 -15.50866,-10.9696 -19.06897,-13.99 -7.37167,-6.254 -10.41378,-7.3911 -14.49413,-5.4201 -3.81466,1.8421 -47.18393,37.2876 -59.78577,51.0165 -5.54642,6.0425 -13.84304,16.3019 -18.43684,22.7986 -4.59381,6.497 -10.89372,15.3812 -13.99981,19.7426 -3.10605,4.3618 -9.65616,14.398 -14.5558,22.3036 -11.08155,17.879 -7.70485,20.816 -12.59346,20.816 -2.719,0 -4.383472,-0.7528 -6.629306,-2.9986 l -2.998746,-2.9986 0.494874,-12.1182 c 0.714524,-17.4966 1.996852,-24.2982 7.517348,-39.8728 6.19368,-17.4738 13.10345,-32.7361 26.9051,-59.4279 5.98808,-11.5801 12.26476,-25.0266 13.94828,-29.8806 5.07936,-14.6453 9.71537,-34.354 11.32905,-48.1627 1.61866,-13.852 1.29174,-21.9053 -1.21986,-30.0506 -2.0268,-6.5725 -9.53258,-21.1423 -13.71092,-26.6148 -1.83963,-2.4094 -6.53542,-9.6735 -10.43507,-16.1425 -3.89971,-6.4684 -10.69151,-17.1033 -15.09289,-23.632 -13.07531,-19.3955 -42.127405,-77.9925 -54.072268,-109.0621 -4.549302,-11.8332 -9.797472,-29.0798 -10.557382,-34.6942 -0.926434,-6.844 -8.136554,-43.8596 -10.426497,-53.5276 -2.864253,-12.0921 -4.676749,-23.3965 -6.861109,-42.7913 -3.643586,-32.35132 -4.525694,-44.29738 -4.525694,-61.28986 0,-9.26822 -0.37807,-30.45618 -0.840154,-47.08444 -1.13875,-40.97848 0.366328,-79.1314 3.77348,-95.65582 1.348934,-6.54228 2.467452,-13.13046 2.485592,-14.64044 0.06426,-5.35056 10.151366,-60.77854 12.037756,-66.14666 1.053714,-2.99854 3.236394,-10.5816 4.850396,-16.8513 1.614,-6.26962 4.08957,-15.1909 5.501264,-19.82504 1.41168,-4.63408 4.77486,-17.76202 7.473704,-29.17312 4.973706,-21.0296 8.568252,-31.45154 16.391634,-47.52558 2.382639,-4.89538 4.332078,-9.46144 4.332078,-10.14676 0,-1.68426 9.589196,-37.07682 12.028972,-44.39738 1.072218,-3.21722 3.09392,-8.5685 4.492668,-11.8918 l 2.54318,-6.04238 -5.319592,-4.80466 c -12.96082,-11.7065 -24.448818,-26.09695 -38.982854,-29.68493 -7.909112,-1.95256 -9.3749,-2.03306 -16.981814,-0.93325 -9.61641,1.39042 -13.115608,0.3315 -15.75203,-4.76683 -1.96377,-3.79747 -1.892252,2.16848 0.332246,-1.44935 3.657714,-5.94872 27.749292,-18.04758 44.257318,-22.22616 5.18769,-1.31317 35.185636,-4.042 44.433146,-4.042 10.34884,0 10.65259,-0.35948 10.6672,-12.62293 0.012,-10.02999 -1.15391,-19.35247 -3.25599,-26.03591 -1.85816,-5.90825 -7.1557,-16.89603 -19.47349,-24.56205 -6.345402,-3.94902 -13.559596,-8.90908 -16.03158,-11.02228 -6.117366,-5.22949 -12.456354,-9.29055 -25.977498,-13.38946 -6.35566,-1.92675 -13.031993,-4.26972 -14.836288,-5.20661 -1.804308,-0.93697 -8.18726,-3.37089 -14.184334,-5.40883 -20.737263,-7.04688 -23.7449994,-3.07089 -23.7449994,-9.97904 0,-5.60665 4.5716734,-9.73191 10.7851034,-9.73191 5.59316,0 30.671858,7.81919 37.576098,11.71571 2.915334,1.64531 7.267562,3.51752 9.671616,4.16043 2.404064,0.64297 9.500748,3.17324 15.770418,5.62287 6.26967,2.44965 14.702756,5.08819 18.740184,5.86344 4.03743,0.77525 10.05933,2.12088 13.3819,2.99029 4.92275,1.28808 9.6195,1.48462 25.37057,1.06169 19.56599,-0.52548 28.29231,-1.83495 33.06428,-4.96162 2.73443,-1.79169 7.77467,-8.78784 16.17907,-22.45775 l 5.77111,-9.3869 -0.0576,-12.42066 c -0.0487,-10.38817 -0.57718,-14.61413 -3.23104,-25.82469 -4.4665,-18.8675 -8.18324,-28.03548 -16.06546,-39.62801 -2.03879,-2.99852 -4.85612,-7.50721 -6.26071,-10.01926 -1.4046,-2.51211 -4.64082,-7.12939 -7.19154,-10.2607 -2.55072,-3.1313 -6.97199,-9.55117 -9.82503,-14.26638 -2.85308,-4.71523 -9.28916,-15.04104 -14.30249,-22.9463 -5.01329,-7.90518 -11.14444,-18.44793 -13.62472,-23.42827 -4.24068,-8.5152 -4.43916,-9.2687 -3.32804,-12.63543 1.46585,-4.44154 4.36839,-6.56008 8.98784,-6.56008 4.3782,0 7.09512,1.95716 17.9044,12.89755 12.17895,12.32674 27.88762,25.799 34.27001,29.3911 3.0629,1.72381 9.18624,6.68171 13.60742,11.01753 4.42118,4.33581 11.38398,10.40058 15.47286,13.47734 4.08894,3.0767 9.95364,7.70914 13.03262,10.29435 8.00483,6.72096 29.79372,19.01777 35.92691,20.27572 5.7907,1.18768 12.4229,-0.13566 15.35014,-3.06296 1.0301,-1.03004 2.24394,-4.70934 2.9358,-8.89857 2.21296,-13.40022 -1.09193,-24.73931 -15.42325,-52.91678 -4.7865,-9.41099 -9.98508,-20.39515 -11.55249,-24.40921 -2.62919,-6.73362 -12.19898,-26.70626 -21.90477,-39.76273 -4.74357,-6.38115 -12.41744,-17.57005 -12.41744,-22.25817 0,-7.65866 9.87814,-11.54182 15.70872,-6.1751 1.27968,1.17789 2.27858,9.8759 3.39265,12.05666 2.16568,4.23926 6.8425,9.84903 16.22092,22.74291 5.52622,7.59772 12.37981,23.98523 17.33905,33.90182 6.03501,12.06765 18.87956,19.13614 31.46965,31.21364 11.59122,11.11938 13.82053,12.78507 24.04531,17.96587 19.09885,9.67738 44.69965,15.03408 61.32784,12.83236 12.19573,-1.61489 62.13123,-16.21723 64.12737,-18.75244 1.64073,-2.08374 3.51784,-14.18042 1.10418,-23.35356 -3.11624,-11.84336 -4.34326,-26.16761 -11.50392,-33.79178 -5.78848,-6.16331 -8.44825,-5.86401 -8.44825,-9.3651 0,-5.05756 -0.48036,-5.99781 4.3494,-6.76606 4.97194,-0.79092 21.47457,5.82424 34.13202,13.6819 10.57685,6.56609 21.57239,16.97843 35.93785,34.03187 9.14273,10.85347 9.68556,11.31998 12.43181,10.68343 3.37406,-0.78215 19.05384,-7.73264 28.8386,-12.78358 15.16872,-7.8303 34.26362,-23.9988 43.5121,-36.84392 12.43376,-17.26896 23.6155,-44.38864 29.94648,-72.631256 2.00928,-8.962916 4.74446,-20.087746 6.07828,-24.721854 1.33392,-4.6341 3.05586,-10.655958 3.82662,-13.3819 2.07938,-7.353636 3.48048,-20.385754 3.48048,-32.372978 0,-5.839586 0.41874,-11.71879 0.93048,-13.0649 1.5567,-4.09426 5.01922,-6.602862 9.1137,-6.602862 7.89992,0 7.40137,6.261999 9.33093,26.444734 4.34626,45.459956 14.03875,66.658856 30.75235,93.418906 9.3252,14.93046 14.9808,21.45059 29.63548,34.16543 10.60608,9.2022 18.65384,14.13967 31.797,19.50789 13.29782,5.43149 44.92986,15.72754 65.37859,21.28047 21.49303,5.8365 48.58305,14.42905 59.72441,18.9437 14.99432,6.0759 36.15248,13.30445 43.3658,14.81559 11.3456,2.37677 29.10734,0.0596 42.41978,-5.53341 8.84246,-3.71521 27.70092,-14.96123 38.43662,-22.9213 9.38132,-6.95602 30.59042,-26.82365 38.33922,-35.9145 17.7376,-20.80947 25.466,-25.59364 31.6105,-39.75656 1.69,-3.89529 3.9198,-10.27228 5.4242,-12.99823 1.5049,-2.72596 4.9044,-7.22137 6.3816,-11.16273 3.5854,-9.56427 3.8956,-16.033554 9.3175,-16.033554 3.0211,0 4.7411,0.633068 6.5006,2.392762 3.706,3.705972 -1.5587,9.000512 -3.9691,18.978232 -3.8663,16.00425 -13.4178,28.47862 -26.5762,45.84922 -10.263,13.54823 -5.9459,20.49811 -18.133,53.38077 -8.2502,22.2602 -15.9702,49.30612 -16.8256,58.94666 -0.6023,6.78655 -0.4172,8.1132 1.7959,12.88628 2.7937,6.0241 12.7404,19.62752 17.747,24.2718 1.8328,1.69999 8.4621,6.91016 14.732,11.57824 6.2697,4.66802 15.1907,11.72001 19.825,15.67107 13.6314,11.62236 23.0474,14.99078 45.2765,16.19721 19.8909,1.07951 36.128,-2.79622 58.7162,-14.0155 8.4989,-4.22151 17.4602,-9.08468 19.9138,-10.8072 6.7066,-4.70871 10.4262,-6.3503 14.3891,-6.3503 4.8205,0 7.3191,1.50288 8.937,5.37553 2.8011,6.70318 -2.3274,7.26685 -14.9641,14.91227 -5.2604,3.18287 -12.9784,8.96648 -17.1501,12.85249 -4.1718,3.886 -10.3803,9.23437 -13.7962,11.88517 -3.4167,2.65088 -9.5082,8.84909 -12.2286,12.1692 -5.0734,6.19214 -8.8022,20.73402 -8.8022,23.38682 0,1.99659 6.1434,7.28108 10.6566,9.1669 2.0046,0.83749 9.2364,2.44023 16.0712,3.56164 11.4869,1.88473 16.5496,2.03721 66.9454,2.01673 29.9853,-0.0123 60.5409,-0.50244 67.9006,-1.08939 17.9436,-1.43097 50.2643,-9.22366 74.3442,-17.92465 6.2695,-2.26555 16.529,-5.80076 22.7985,-7.85616 6.27,-2.05536 17.6203,-6.92434 25.2234,-10.81989 16.5457,-8.47751 19.6995,-8.94715 24.9343,-3.71254 8.3472,8.34722 -2.1709,16.28263 -26.8981,32.90419 -4.3614,2.93174 -10.0068,6.78251 -12.5449,8.55715 -10.8828,7.609 -32.7314,21.92577 -43.9214,28.24996 -4.9066,2.77319 -15.1661,7.77176 -22.7989,11.108 -7.6326,3.33624 -19.0001,5.44292 -22.8162,7.12601 -3.8163,1.68309 -13.1836,6.45877 -20.8164,10.61275 -12.2228,6.65211 -13.0105,14.67531 -21.3797,22.96948 -15.1387,15.00326 -23.1165,27.58557 -32.252,50.86656 -5.5176,14.06122 -10.6547,30.07968 -12.4563,38.84174 -1.4068,6.8414 -0.4374,19.1295 1.9254,24.40678 3.0553,6.82582 13.0128,15.4958 31.8477,27.7312 6.7962,4.41494 10.835,6.2005 19.7584,8.73582 l 11.2158,3.18666 34.3818,0.93692 c 37.1273,1.0119 40.2387,1.31254 67.093,6.4837 22.9309,4.41554 34.1251,8.63678 42.1639,15.89916 5.027,4.54178 5.4692,9.46064 1.2035,13.38816 -4.6265,4.25932 -18.8046,5.10658 -29.9857,6.25146 -8.1189,0.83122 -17.2292,2.8406 -26.7636,5.9031 -4.0891,1.31332 -9.442,2.66468 -11.895,3.00302 -2.4536,0.33826 -9.1443,1.6522 -14.8691,2.91982 -22.9246,5.0762 -41.7831,9.08024 -66.7672,13.89872 -41.1562,7.93734 -50.1767,15.65544 -67.5927,30.82906 0,0 -42.602,24.68724 -92.8433,45.7435 -3.6799,1.5423 -5.7408,5.92126 -5.7408,6.33042 0,3.15764 4.4697,25.9061 6.449,32.82194 2.4987,8.73064 5.9578,24.67348 9.4285,43.45434 1.0578,5.72448 2.5076,12.4154 3.2216,14.86878 1.2969,4.45458 1.8465,7.43647 6.7575,7.69709 6.5713,0.34881 34.9964,1.10625 40.3776,2.29767 2.3542,0.52134 7.707,1.42012 11.895,1.99732 11.6232,1.60206 23.3822,4.9272 51.9011,14.67648 43.9402,15.02082 52.036,18.15852 70.6982,27.39998 10.5819,5.24024 33.3464,12.73154 46.589,15.33158 12.753,2.50394 18.3382,6.58858 18.3382,13.41154 0,6.72966 -4.3148,10.25086 -18.1589,14.81914 -13.7196,4.52726 -24.2161,6.57386 -43.2988,8.44266 -10.364,1.0145 -24.8531,4.3569 -32.0116,7.3844 -4.4399,1.8775 -12.814,10.3134 -15.7271,15.8432 -4.0727,7.7307 -1.4768,25.6929 4.8148,28.1867 2.6005,1.0309 22.7559,4.6755 41.9324,7.5823 15.4955,2.3491 34.0737,2.7531 46.5891,1.0136 21.8018,-3.0302 21.9857,-3.0311 25.448,-0.1177 3.8605,3.2487 4.7316,0.5614 2.8861,4.9779 -1.2401,2.9686 -2.7685,4.0616 -11.1681,7.9893 -9.8867,4.6237 -28.0777,11.0703 -51.3642,18.2033 -48.8091,14.9513 -55.7882,17.4869 -65.1131,23.6579 -4.1517,2.7475 -8.1859,10.0369 -9.2081,16.6387 -0.9731,6.2831 1.1811,13.7017 24.7585,22.3098 10.8254,3.9528 50.3514,9.9301 65.6605,9.9301 5.6652,0 11.2013,0.4822 12.3018,1.0713 3.215,1.7205 5.119,1.3717 3.8148,5.3229 -1.7828,5.4027 -4.7475,6.5991 -18.7523,7.5687 -14.5871,1.0094 -33.8237,3.4063 -38.7536,4.8287 -3.8504,1.1106 -15.4987,3.0586 -35.9089,6.0057 -15.0227,2.1689 -33.3266,7.9914 -39.1968,12.4687 -4.0147,3.0628 -11.5064,12.4382 -13.7438,17.2006 -0.8967,1.9082 -4.6308,8.1528 -8.2984,13.8776 -3.6675,5.724 -8.4346,13.9864 -10.5935,18.3612 -4.2625,8.636 -8.2873,14.6865 -17.3852,26.1354 -3.2368,4.0729 -8.0821,10.559 -10.768,14.4133 -2.6857,3.8548 -8.9394,11.9082 -13.8963,17.8974 l -9.013,10.8885 0.6335,5.4671 c 1.7645,15.2188 5.186,26.5853 8.9404,29.7015 0.864,0.7172 2.393,3.1623 3.3977,5.4332 3.4649,7.8325 10.5053,22.9597 22.8944,35.6801 11.7558,12.0697 16.2141,15.996 27.9233,24.5935 2.7346,2.0073 7.0972,5.5759 9.6949,7.93 7.5098,6.8053 13.6652,11.7378 25.6388,20.546 11.3122,8.3221 14.1009,5.6147 14.0942,10.6435 -0.01,3.994 -3.4147,9.043 -6.6567,9.8586 -5.7086,1.4352 -30.7506,-5.7195 -79.083,-22.5946 -7.6328,-2.6648 -22.1299,-7.0277 -32.2156,-9.6948 -10.086,-2.667 -21.461,-6.0333 -25.277,-7.4803 -8.2085,-3.1128 -20.7398,-6.5345 -24.4209,-6.6686 -1.4374,-0.053 -3.9596,0.8635 -5.605,2.0354 -1.6454,1.1714 -3.3998,2.13 -3.8993,2.13 -2.1072,0 -9.7546,7.793 -13.7237,13.985 -6.861,10.704 -9.2753,16.186 -12.5415,28.4786 -6.9727,26.2412 -8.9035,42.2397 14.5887,80.9472 17.6193,29.0307 29.215,43.6576 30.9106,65.1144 0.5828,7.3758 0.4983,7.7835 -2.6223,12.6467 -5.5864,8.7053 -8.33,8.0833 -32.1191,-7.2801 -11.2974,-7.2967 -22.7173,-12.6228 -44.8665,-20.9256 -15.8685,-5.9483 -36.2078,-11.3918 -42.5627,-11.3918 -3.7882,0 -14.22252,10.467 -21.86384,21.9329 -6.83578,10.2569 -12.35938,23.4183 -16.89732,40.2629 -4.66034,17.2986 -9.18252,37.0914 -2.43088,47.7997 3.82,6.0591 4.38428,8.3666 3.04114,12.4363 -1.46226,4.4313 1.61906,6.431 -3.38576,6.431 -3.37236,0 -5.3254,-1.0007 -12.57148,-6.4389 -4.71834,-3.5412 -12.43564,-10.7897 -17.14954,-16.1078 -7.28092,-8.2144 -9.74064,-11.9814 -16.34458,-25.0335 -6.83038,-13.5002 -12.4159,-25.7107 -21.5378,-47.0846 -7.4077,-17.3576 -16.21452,-24.3349 -34.37758,-27.2362 -3.62306,-0.5787 -7.59126,-0.8598 -8.8181,-0.6245 -8.97058,1.7212 -13.79858,3.079 -14.6669,4.1253 l -30.53096,8.1268 c -0.88318,-0.8834 -13.47734,0.021 -45.25418,3.2462 -4.36152,0.4429 -21.98104,0.8409 -39.1545,0.8835 -26.73994,0.068 -36.13866,-0.3447 -65.4408,-2.867 -18.81898,-1.6198 -42.90644,-4.0312 -53.52758,-5.359 -10.62118,-1.3272 -23.10282,-2.6844 -27.7369,-3.0165 -4.63416,-0.3315 -10.65598,-1.0183 -13.38194,-1.526 -2.72596,-0.5077 -9.41688,-1.4327 -14.8688,-2.056 -5.45184,-0.6231 -11.1392,-1.3716 -12.63848,-1.664 l -2.7259,-0.5314 c 0,0 -20.46704,-18.2355 -39.65782,-17.6849 -10.79985,0.3095 -22.66906,17.6202 -26.65072,20.418 z M 287.00482,1391.464 c 0,-0.5454 -0.44604,-0.9916 -0.99124,-0.9916 -0.54514,0 -0.99126,0.4462 -0.99126,0.9916 0,0.5448 0.44612,0.9908 0.99126,0.9908 0.5452,0 0.99124,-0.446 0.99124,-0.9908 z m -44.45261,-258.1705 c 15.39813,-27.1293 22.60968,-37.0379 40.45582,-55.5851 6.83233,-7.101 13.80223,-14.5367 15.48854,-16.5238 6.36535,-7.5006 15.5812,-6.9023 20.8559,1.3533 5.842,9.1437 9.47535,12.7698 16.85153,16.818 4.07097,2.2344 10.16724,6.1012 13.54732,8.5929 3.38001,2.4918 9.92491,6.0165 14.54416,7.8327 4.61922,1.8161 11.33702,5.0775 14.92837,7.2475 3.5914,2.1701 7.28786,3.9452 8.21439,3.9452 1.47574,0 1.37863,-0.585 -0.78293,-4.719 -5.75547,-11.0069 -8.19669,-31.5738 -5.4539,-45.9473 0.56038,-2.9366 1.42704,-9.2584 1.92595,-14.0481 1.2296,-11.8043 4.39289,-18.6937 9.86515,-21.4857 3.88732,-1.9831 4.72499,-2.027 20.15642,-1.061 24.95138,1.5615 51.62265,6.598 84.00139,15.863 17.92953,5.1298 21.72037,5.8865 32.21566,6.4309 13.87115,0.7195 48.8766,4.0303 57.49264,5.4383 3.27116,0.5346 12.86152,1.4547 21.31196,2.0452 8.45038,0.5903 23.17046,1.9053 32.71126,2.9218 16.16746,1.7226 23.95502,2.3529 62.2011,5.0328 67.8904,4.7571 137.98052,4.9562 170.24754,0.4842 5.45192,-0.7554 19.05682,-1.655 30.23322,-1.9988 11.17636,-0.3437 23.66614,-1.0388 27.75508,-1.5444 4.08888,-0.5055 15.01742,-1.5845 24.28564,-2.398 42.66578,-3.7443 42.40697,-3.7142 63.44018,-7.4652 5.9968,-1.0699 21.8324,-3.5176 35.1896,-5.4402 29.8963,-4.303 33.6826,-4.928 51.049,-8.4255 17.3366,-3.4917 38.7025,-7.415 51.1694,-9.3961 8.8332,-1.4041 19.3794,-4.278 34.0784,-9.287 3.2716,-1.1145 11.5236,-3.6697 18.3386,-5.6786 10.8196,-3.1891 19.7928,-6.87936 49.7743,-20.47114 3.6607,-1.65938 7.337,-3.77036 8.1702,-4.69112 1.3745,-1.5183 1.2624,-1.9164 -1.2041,-4.279 -2.8381,-2.71904 -15.6157,-10.18276 -27.499,-16.06228 -11.9141,-5.89518 -38.5425,-11.42664 -55.0074,-11.42664 -4.3654,0 -7.9366,0.17398 -7.9366,0.38648 0,2.88902 -4.3949,20.36032 -5.829,23.17032 -2.7048,5.30262 -14.0868,14.55754 -23.4132,19.03798 -20.8252,10.0052 -43.7513,14.2586 -123.4106,22.8983 -4.634,0.5024 -11.7716,1.3785 -15.8602,1.9461 -4.0892,0.5683 -20.3703,1.4605 -36.18078,1.9834 -15.8105,0.5229 -34.32212,1.3911 -41.13696,1.9296 -30.38636,2.4001 -65.2253,4.0225 -106.55964,4.9631 -24.53346,0.5586 -48.62092,1.52 -53.52756,2.1369 -13.28918,1.6699 -171.2423,1.7159 -193.29422,0.056 -37.79052,-2.845 -65.07994,-5.2185 -76.32642,-6.6375 -23.62524,-2.981 -35.92246,-4.6061 -49.06696,-6.482 -7.36004,-1.0507 -17.3965,-2.4193 -22.3032,-3.0416 -15.97302,-2.0253 -25.59239,-5.1014 -52.53632,-16.79995 -6.54226,-2.84053 -15.42536,-6.65853 -19.74016,-8.48451 -10.12954,-4.2867 -12.11859,-6.22548 -13.49789,-13.15682 -0.60934,-3.06187 -1.91389,-7.79736 -2.89908,-10.52332 -0.98519,-2.72596 -2.09558,-7.20062 -2.46756,-9.94384 -0.9465,-6.98028 2.68145,-28.12548 5.99272,-34.92796 4.6297,-9.51088 17.23456,-20.57484 31.42901,-27.58682 4.8116,-2.37698 10.08779,-5.27546 11.72503,-6.44128 3.37532,-2.40348 34.606,-19.21988 50.68301,-27.29076 9.48277,-4.76052 24.18151,-10.50958 47.31702,-18.5071 13.21562,-4.56838 35.49657,-9.95742 65.42266,-15.82364 4.08888,-0.80152 15.90958,-3.46792 26.26814,-5.92521 29.49382,-6.99685 48.81084,-11.32187 71.86578,-16.09061 11.7216,-2.42456 24.4344,-5.12534 28.25072,-6.0017 3.8163,-0.8765 17.42126,-3.78988 30.23316,-6.47416 12.81196,-2.68444 29.98536,-6.85772 38.16324,-9.27396 8.17782,-2.4164 18.66032,-5.50888 23.2944,-6.87236 4.63408,-1.36348 12.1063,-3.61384 16.6049,-5.00078 8.83836,-2.72486 23.78994,-6.29592 41.87898,-10.0025 6.2697,-1.28466 16.75214,-3.6717 23.2944,-5.30442 6.54228,-1.63282 14.57144,-3.4886 17.84255,-4.12421 5.85725,-1.13803 16.64069,-4.26357 41.24383,-11.95431 13.30202,-4.15808 36.79472,-9.12814 51.1522,-10.82158 14.45024,-1.70434 40.7118,-5.92652 52.8226,-8.49236 14.8862,-3.15386 26.6184,-5.01968 40.641,-6.46346 6.2702,-0.6454 13.599,-1.78859 16.2877,-2.54026 5.7552,-1.60884 20.1967,-1.77349 29.3099,-0.33399 14.5655,2.30055 30.9018,18.52821 37.7197,37.46903 2.9159,8.10171 0.8537,8.38938 29.1859,-4.06974 20.3379,-8.9437 41.5735,-27.41862 43.6909,-38.01184 0.7459,-3.73186 -1.2809,-8.06238 -5.3939,-11.52341 -3.2954,-2.77277 -26.0406,-15.94737 -31.3941,-18.18425 -10.9031,-4.55548 -21.6425,-6.49132 -39.1754,-7.0614 -27.9019,-0.90716 -52.6935,2.11236 -84.1957,10.25454 -18.6398,4.81788 -44.8548,11.90968 -52.53618,14.21248 -28.76296,8.62267 -121.1244,31.07631 -155.13102,37.71325 -5.99706,1.17041 -13.80314,2.94693 -17.34688,3.94775 -3.54374,1.00086 -10.01162,2.58334 -14.37312,3.51648 -11.04426,2.36314 -29.69616,8.38926 -42.62386,13.7711 -14.7464,6.13892 -62.51898,21.80012 -77.81334,25.50944 -6.81482,1.65284 -12.83666,3.36384 -13.38186,3.80216 -2.19602,1.766 -14.09104,4.04292 -33.28964,6.37248 -11.13088,1.35056 -23.58348,2.90286 -27.67241,3.44966 -4.08889,0.54664 -9.66467,1.26144 -12.39063,1.58844 -2.72596,0.32702 -7.8557,1.20846 -11.39938,1.95884 -3.54372,0.75038 -16.0335,3.20066 -27.75506,5.44512 -11.72154,2.24442 -26.88774,5.41424 -33.70258,7.04396 -22.57679,5.39908 -47.9208,11.8837 -59.47514,15.21782 -6.26968,1.80914 -18.8949,5.15886 -28.05605,7.4439 -9.16115,2.28514 -21.78981,6.10214 -28.06366,8.48244 -11.4912,4.35972 -30.90452,14.08012 -34.57985,17.31448 -6.45576,5.68118 -14.98002,5.27566 -18.61974,-0.88586 -0.88028,-1.49024 -2.499,-8.70074 -3.59723,-16.0234 -3.08133,-20.54636 -3.58524,-23.12008 -8.35794,-42.68934 -2.45513,-10.06681 -5.59287,-20.85608 -6.97271,-23.97614 -4.31035,-9.74648 -13.12345,-23.67226 -19.63808,-31.03086 -3.43995,-3.8856 -10.86649,-12.26496 -16.50344,-18.62074 -5.63694,-6.35594 -12.55094,-13.27287 -15.36444,-15.37096 -5.53096,-4.12482 -11.48514,-7.42322 -12.16779,-6.74052 -0.23377,0.23374 1.0955,6.62308 2.9539,14.19842 5.57979,22.74466 7.90915,41.83378 7.24474,59.37104 -0.63786,16.83628 -2.35969,25.86876 -6.70816,35.18944 -3.29964,7.07266 -5.9397,10.36256 -10.01859,12.48484 -4.76691,2.4802 -9.5335,1.57718 -14.24023,-2.6978 -2.36368,-2.14694 -13.44704,-5.09882 -27.68939,-7.37464 -19.34705,-3.0916 -80.86993,-2.93538 -85.96941,0.2163 -0.56194,0.34724 2.32763,1.85254 6.42126,3.34498 17.56806,6.40498 27.28406,14.0851 47.63265,32.53516 17.5484,15.91128 28.32689,28.57364 35.85313,42.11952 4.76586,8.57782 5.0275,13.32122 0.96836,17.55806 -1.53934,1.60668 -3.27292,2.93526 -3.85236,2.95232 -0.5795,0.017 -3.28393,1.12812 -6.00989,2.46902 -2.72596,1.34094 -6.548,2.44212 -8.49356,2.4472 -9.00116,0.023 -27.37996,8.59018 -42.2058,19.67396 -11.40282,8.52466 -34.28539,31.3448 -40.82642,40.71482 -2.82116,4.04122 -4.92455,7.5525 -4.67428,7.8028 0.2503,0.2503 3.93214,-0.4654 8.18188,-1.59024 16.20615,-4.28992 45.20971,-7.3905 57.28936,-6.12428 10.62365,1.11358 15.51105,2.4959 33.24885,9.40325 22.52952,8.77339 34.3894,15.63533 36.41713,21.07059 2.24407,6.0151 3.39058,12.2122 2.74442,14.8342 -0.37493,1.5212 -1.96487,4.1042 -3.53313,5.7398 -3.24238,3.3816 -17.59412,32.4032 -20.83311,42.128 -3.17579,9.5356 -8.72504,34.4554 -9.88009,44.3688 -0.5551,4.7648 -1.25925,16.4692 -1.56468,26.0104 -0.65807,20.5544 -1.51557,20.7334 11.63006,-2.4273 z"
       id="path3925"
       inkscape:connector-curvature="0"
       sodipodi:nodetypes="ssssssssscssssssssssssssssssscsssssscsssssscsssssssssssssssssscsssssssssssssssssssssssscsssssssssssssssssssssssssssssssssssssssscssssssssssssssscsssssscsssssssscsscsscssssssssssssssssssscsssscsssssssssccssssssssccssscsssssssccscsssscssscsccsssscsssccssssssssssssscsssssscccccsssssscscscsssccssscccsssssssssssscscscsssscscsssscsscsssccscsssssssssssssscscscscsssscscssccsssssscsscscsssssssscsssssccsssscscsssscccssccssssssssccc" />
    <path
       sodipodi:nodetypes="ssscsssssccsssssssscscssssscssssssssscssssccssssssscssssscscscsssssscsssssssccsscsssssssssscsssssssss"
       inkscape:connector-curvature="0"
       id="path3971"
       d="m 233.14177,1151.608 c 20.01952,-35.1202 26.14835,-43.6101 47.29015,-65.5079 7.94573,-8.23 14.44675,-15.4251 14.44675,-15.9893 0,-1.8552 6.73445,-5.1771 10.50347,-5.1812 5.0193,0 7.50426,1.9867 12.91726,10.3543 4.84719,7.493 6.71023,9.1154 16.9067,14.7236 3.45664,1.9012 9.47462,5.8063 13.37331,8.6781 3.89866,2.8718 10.6435,6.5478 14.98849,8.1688 4.34501,1.621 11.11625,4.8903 15.04722,7.2655 3.93098,2.3751 8.95818,4.6123 11.17156,4.9715 l 4.02434,0.6532 -1.80648,-2.794 c -0.99351,-1.5367 3.47731,-3.5835 2.64914,-4.8798 -2.23115,-3.4921 -11.72472,-17.3714 -12.41859,-25.1482 -0.3341,-3.7447 -0.0592,-11.5222 0.61087,-17.2832 0.67007,-5.761 1.60095,-14.2455 2.06857,-18.8544 1.21264,-11.9513 -0.33861,-23.7008 3.93638,-26.9521 3.3684,-2.5619 3.92631,-2.6534 14.57043,-2.3931 22.52547,0.5513 57.77989,6.8823 88.95465,15.9747 13.00094,3.7919 21.99306,5.8257 28.11459,6.3591 4.95007,0.4312 18.22523,1.5258 29.50038,2.4322 11.27513,0.9064 24.84711,2.2759 30.15997,3.0432 5.31277,0.7674 18.36293,2.0788 29.00036,2.9141 10.63734,0.8353 25.41572,2.1836 32.84081,2.9959 59.51464,6.5112 155.10145,10.0762 203.00254,7.5713 12.92516,-0.6758 25.52532,-1.6347 28.00035,-2.1309 2.47503,-0.496 15.9752,-1.3506 30.00037,-1.899 14.02518,-0.5483 30.90039,-1.6699 37.50047,-2.4923 6.60009,-0.8225 17.85022,-1.9629 25.00031,-2.5342 27.27324,-2.1791 35.52616,-3.1206 52.50066,-5.9895 9.6251,-1.6267 23.8003,-3.8841 31.5004,-5.0164 38.0913,-5.6018 44.0445,-6.5743 58.5008,-9.5566 6.325,-1.3048 15.3251,-3.0492 20.0001,-3.8765 4.6752,-0.8272 12.3252,-2.2114 17.0003,-3.0761 4.675,-0.8647 13.4502,-2.4688 19.5003,-3.5646 6.0501,-1.0959 16.8502,-3.9462 24.0002,-6.3342 7.1501,-2.3879 18.6253,-6.0192 25.5003,-8.0695 6.8751,-2.0503 17.2253,-5.8963 23.0003,-8.54656 5.7751,-2.65025 15.6348,-7.09941 21.9105,-9.88695 11.4341,-5.07886 15.09,-7.39418 15.09,-9.55631 0,-3.09735 -10.4254,-9.86392 -30.5004,-19.79615 -13.5167,-6.68738 -37.4744,-12.88996 -55.8249,-12.88996 -8.1321,0 -16.456,-5.73647 -16.456,-5.73647 l -32.3371,-184.48724 c 0,0 26.5341,-12.66503 40.1739,-18.9046 9.9142,-4.53526 30.2932,-19.86145 35.6243,-26.79144 11.0863,-14.41128 8.2083,-20.50896 -16.24,-34.40893 -21.7692,-12.37676 -33.8057,-19.52129 -59.4119,-19.52129 -30.1926,0 -60.9752,3.61024 -98.6966,13.50386 -21.1205,5.53947 -25.3594,6.68459 -62.835,16.97452 -11.55015,3.17144 -22.57529,6.14558 -24.50031,6.60918 -1.92503,0.4636 -9.12512,2.18463 -16.0002,3.82434 -6.87509,1.63983 -20.82527,5.01897 -31.00038,7.5092 -23.645,5.78688 -44.12595,10.51883 -50.50064,11.66765 -11.50074,2.07272 -17.07461,5.31524 -38.00048,10.471 -24.8449,6.12128 -35.58104,9.44482 -50.00062,15.4785 -13.89248,5.81317 -63.60209,22.12707 -77.50097,25.43472 -6.32508,1.50521 -12.68475,-0.64086 -14.13267,0.11974 -3.88815,2.04263 -13.71608,4.07246 -28.36786,5.85918 -35.26334,4.30006 -53.58987,6.78288 -59.50074,8.0607 -3.57505,0.77291 -16.17521,3.24494 -28.00035,5.49357 -11.82515,2.24853 -24.87532,4.97346 -29.00036,6.05547 -4.12506,1.08192 -10.65014,2.63184 -14.50018,3.44415 -3.85005,0.81231 -17.12522,4.19335 -29.50037,7.51329 -12.37516,3.31994 -32.62542,8.66981 -45.00056,11.88865 -12.37516,3.21873 -24.30031,6.62578 -26.50034,7.57109 -2.20002,0.94531 -6.41461,2.56844 -9.36573,3.60695 -5.84736,2.05772 -27.57693,19.55267 -33.03267,23.47422 -3.91115,2.81133 -3.72185,-0.32404 -8.0455,-2.55996 -3.71796,-1.92261 -5.92688,-8.36558 -7.35947,-21.46602 -1.42461,-13.02754 -3.44986,-23.33534 -8.82841,-44.93366 -7.27441,-29.21141 -13.83018,-41.26324 -36.23963,-66.62144 -17.74203,-20.07657 -24.58724,-26.74766 -31.48375,-30.68268 -6.67268,-3.80733 -22.14608,-8.47631 -21.2494,-5.55754 2.58448,8.41282 11.16751,32.47165 13.13751,44.09621 3.12784,18.45687 10.68936,44.30865 7.8907,57.61061 -3.43187,16.31177 -10.57561,28.08749 -18.20019,30.0011 -1.95251,0.49011 -3.92574,0.0306 -6.52745,-1.52145 -10.58016,-6.30993 -17.15815,-8.13515 -40.18206,-11.14933 -8.85152,-1.15881 -21.04543,-1.59895 -42.94609,-1.55024 -30.24805,0.067 -46.79104,7.35657 -47.56128,9.70645 -0.20839,0.63572 3.29042,2.46951 7.77512,4.07506 10.869,3.89124 25.1987,11.28152 33.12787,17.08511 8.25676,6.04335 31.45848,20.85377 38.36678,28.4126 13.32151,14.5758 24.12271,31.66269 24.12271,38.16064 0,4.04543 -4.01675,9.33355 -7.08959,9.33355 -0.86162,0 -3.03631,0.90428 -4.83262,2.00946 -1.79956,1.10716 -7.0286,2.51151 -11.64577,3.12762 -10.94894,1.46102 -27.92314,9.70572 -42.33842,20.56458 -18.44075,13.89129 -50.36229,48.04454 -50.36229,53.88343 0,1.4388 1.35382,7.74262 14.24494,4.39083 11.60434,-3.01733 37.3887,-12.75191 49.5105,-12.73002 13.23958,0.0241 20.77752,1.72852 39.56469,8.94734 19.12328,7.34808 28.86408,12.0269 35.56841,17.08457 4.72159,3.5619 5.28372,4.4673 6.93605,11.1717 2.05145,8.3236 -0.96445,9.4299 -5.0434,13.8148 -3.16698,3.4044 -17.70343,24.8601 -23.47122,38.8013 -4.07176,9.8417 -4.56859,38.4843 -6.17592,51.0461 -1.61347,12.61 -3.68386,49.1953 -2.89965,51.2389 0.37798,0.985 1.1137,1.5273 1.63493,1.2053 0.52122,-0.3221 5.31499,-8.2474 10.6528,-17.6115 z"
       style="color:#000000;fill:#cfc392;fill-opacity:1;fill-rule:nonzero;stroke-width:1;stroke-linecap:butt;stroke-linejoin:miter;stroke-miterlimit:4;stroke-opacity:1;stroke-dasharray:none;stroke-dashoffset:0;marker:none;visibility:visible;display:inline;overflow:visible;enable-background:accumulate" />
    <path
       style="fill:#9f4903"
       d="m 1165.0674,921.99119 z m 2.5139,26.00676 -2.0461,9.73952 c -2.5504,12.13848 -3.7521,14.41145 -10.8454,20.518 -8.2236,7.07789 -10.8684,8.7619 -19.9547,12.70082 -16.0405,6.95359 -38.3037,11.39231 -82.8001,16.50981 -11.9679,1.3769 -26.7996,3.1115 -32.9596,3.8564 -18.5726,2.2462 -46.58775,4.1799 -76.94234,5.311 -15.80227,0.5895 -36.62045,1.725 -46.2625,2.5246 -9.64205,0.7986 -37.74511,1.8185 -62.45134,2.2656 -24.70612,0.4467 -45.38763,1.101 -45.95874,1.4535 -1.40548,0.8688 -63.03073,2.7884 -104.39764,3.2527 -37.39516,0.4196 -89.40659,-0.9542 -116.87369,-3.0861 -9.91001,-0.7689 -24.37314,-1.8888 -32.14035,-2.4874 -13.22335,-1.0206 -31.85668,-3.1115 -56.97595,-6.3934 -9.78802,-1.2791 -16.13806,-2.1847 -47.39023,-6.7572 -13.43697,-1.9686 -25.79804,-6.2098 -52.43952,-17.99326 -5.08882,-2.25082 -11.98712,-5.18968 -15.32941,-6.53062 -6.963,-2.7936 -10.43402,-6.35215 -11.3957,-11.68309 -0.36927,-2.04702 -1.73875,-7.14113 -3.0433,-11.32027 -2.75587,-8.82853 -2.93751,-14.37794 -0.86746,-26.48971 2.08993,-12.22784 3.93073,-17.32634 8.21064,-22.74078 5.13444,-6.4956 17.77463,-16.44584 25.34713,-19.95328 3.48183,-1.61243 8.74114,-4.47043 11.68738,-6.35055 5.46996,-3.49078 19.28168,-10.97272 45.28857,-24.53275 22.28013,-11.61695 64.87328,-26.70815 85.22047,-30.19457 3.48183,-0.59655 9.39865,-1.89041 13.14833,-2.87491 3.74968,-0.98461 9.00899,-2.06987 11.68738,-2.41174 2.67839,-0.34187 13.63524,-2.7526 24.34869,-5.35747 10.71345,-2.60487 22.10864,-5.24185 25.32262,-5.86025 3.21409,-0.6184 13.07531,-2.81625 21.91382,-4.88412 8.8386,-2.06787 21.11036,-4.69888 27.27058,-5.84639 6.16022,-1.14761 16.81421,-3.38626 23.67563,-4.975 6.86134,-1.58864 23.5205,-5.2241 37.02048,-8.07865 23.32109,-4.93141 38.4495,-8.96969 69.32602,-18.5054 7.49936,-2.31617 21.74332,-6.03822 31.65333,-8.27139 9.9099,-2.23317 26.34523,-5.99293 36.52298,-8.35498 10.17775,-2.36206 20.03897,-4.55802 21.91392,-4.88004 3.81302,-0.65477 23.42234,-6.38707 41.87976,-12.24253 6.69581,-2.12423 15.68057,-4.50464 19.96595,-5.28983 13.50047,-2.47379 29.88868,-5.12604 38.47095,-6.22596 14.23897,-1.82507 37.24244,-5.66393 43.34104,-7.23302 6.0176,-1.54843 23.678,-4.36837 43.3406,-6.92067 6.16,-0.79965 13.3914,-1.94078 16.0699,-2.53593 5.3218,-1.18236 20.8467,-0.5328 27.2068,1.13813 12.5207,3.2894 33.755,37.70272 33.755,37.70272 z"
       id="path3923"
       inkscape:connector-curvature="0"
       sodipodi:nodetypes="cccsscssssscsssssscsssscsscsssssccsssscssssccccc" />
    <path
       sodipodi:nodetypes="cssssscsc"
       inkscape:connector-curvature="0"
       id="path4052"
       d="m 567.33538,2139.3755 c 8.44384,-3.5281 12.56992,-9.3135 17.174,-24.0805 3.26898,-10.4846 3.38148,-17.9291 0.31732,-20.9885 -2.86867,-2.8642 -17.81141,-5.0718 -34.33002,-5.0718 -26.35363,0 -45.68008,5.19 -69.26832,18.6015 C 468.09362,2115.3042 464,2119.782 464,2126.6811 c 0,8.6734 2.70128,12.0219 10.95001,13.5738 1.2679,0.2385 21.59424,0.5473 45.16964,0.6862 36.82186,0.2169 43.47774,0 47.21573,-1.5656 z"
       style="color:#000000;fill:#cfc392;fill-opacity:1;fill-rule:nonzero;stroke-width:1;stroke-linecap:butt;stroke-linejoin:miter;stroke-miterlimit:4;stroke-opacity:1;stroke-dasharray:none;stroke-dashoffset:0;marker:none;visibility:visible;display:inline;overflow:visible;enable-background:accumulate" />
    <path
       sodipodi:nodetypes="cccsccscsccc"
       inkscape:connector-curvature="0"
       id="path4020"
       d="m 987.48128,2115.9537 c 4.07276,-0.6223 11.7626,-1.655 17.08832,-2.2948 11.1285,-1.3364 34.9774,-8.3867 37.7784,-11.1682 2.5935,-2.5763 6.652,-17.8233 6.652,-24.9918 0,-5.2639 -0.3277,-6.0474 -3.1332,-7.4877 -13.6976,-7.0337 -42.2468,-11.1168 -62.64312,-8.9609 -9.87546,1.0435 -13.36708,2.0095 -22.78472,6.3016 -6.1172,2.7878 -12.40372,5.4453 -13.97024,5.9054 -10.10466,2.9703 -24.86206,15.5402 -27.12958,23.1085 -2.15398,7.1899 -1.50006,13.7 1.74218,17.3468 0.9259,1.0421 29.15798,3.1143 44.18484,3.2443 8.14552,0.07 18.14236,-0.381 22.21512,-1.0032 z"
       style="color:#000000;fill:#cfc392;fill-opacity:1;fill-rule:nonzero;stroke-width:1;stroke-linecap:butt;stroke-linejoin:miter;stroke-miterlimit:4;stroke-opacity:1;stroke-dasharray:none;stroke-dashoffset:0;marker:none;visibility:visible;display:inline;overflow:visible;enable-background:accumulate" />
    <path
       style="fill:#120e06"
       d="m 493,2165.5922 c -20.25668,-1.0855 -44.97554,-3.5555 -48.24954,-4.8212 -4.34649,-1.6803 -6.74238,-6.6009 -6.74672,-13.8563 -0.004,-6.4827 3.41534,-25.8191 7.47212,-42.2565 1.28955,-5.225 2.83243,-13.325 3.42864,-18 0.59621,-4.675 2.85108,-17.725 5.01083,-29 8.48904,-44.3173 12.17451,-65.2549 14.60978,-83 1.39638,-10.175 3.63666,-24.8 4.9784,-32.5 1.34175,-7.7 3.1485,-19.7992 4.015,-26.8872 0.8665,-7.088 2.21851,-16.313 3.00446,-20.5 0.78596,-4.187 2.12037,-13.6878 2.96536,-21.1128 0.84499,-7.425 2.18278,-16.875 2.97286,-21 0.79009,-4.125 1.92804,-12.45 2.52877,-18.5 0.60074,-6.05 1.71709,-14.825 2.48077,-19.5 0.76369,-4.675 1.69288,-11.425 2.06487,-15 0.37199,-3.575 1.51894,-10.55 2.54879,-15.5 1.02985,-4.95 2.37453,-13.725 2.98818,-19.5 0.61365,-5.775 1.9869,-17.7 3.05167,-26.5 1.06477,-8.8 2.36776,-24.1 2.89554,-34 0.52778,-9.9 1.68897,-25.875 2.58043,-35.5 2.0851,-22.5126 1.67517,-75.7583 -0.60439,-78.505 -1.12316,-1.3534 -2.66329,-1.6218 -7.52739,-1.3121 -11.58857,0.7379 -28.90597,12.7553 -42.10249,29.2171 -4.45317,5.555 -9.68356,12.575 -11.6231,15.6 -10.02388,15.6337 -19.96147,32.1427 -27.98825,46.496 -4.91999,8.7978 -10.40652,18.0228 -12.1923,20.5 -1.78577,2.4772 -5.20621,8.104 -7.60097,12.504 -14.018,25.7559 -20.25683,31.3294 -27.88459,24.9111 -4.6017,-3.8721 -4.16543,-7.4805 2.42327,-20.0432 3.025,-5.7678 5.5,-11.1298 5.5,-11.9155 0,-0.7856 1.32953,-5.5964 2.95451,-10.6904 1.62498,-5.0941 4.35573,-14.662 6.06832,-21.262 1.7126,-6.6 4.22334,-16.275 5.57944,-21.5 4.32198,-16.6525 5.68132,-66.1865 1.8566,-67.6542 -1.77482,-0.681 -8.18084,4.5178 -13.25905,10.7606 -3.73276,4.5887 -11.04005,11.4323 -28.00747,26.2303 -8.51319,7.4247 -40.06225,28.9095 -51.19235,34.8619 -11.59223,6.1995 -22.80323,9.724 -31.5,9.9029 -16.29682,0.3352 -18.42299,0.066 -21.16552,-2.6761 -2.25663,-2.2566 -2.51527,-3.1921 -2.09418,-7.5745 0.26424,-2.7499 1.3635,-6.2039 2.44281,-7.6754 1.15469,-1.5743 7.25013,-5.3727 14.80974,-9.2287 13.91393,-7.0973 19.5188,-11.3547 25.4287,-19.3152 2.09529,-2.8224 6.85293,-8.5066 10.57253,-12.6316 13.33339,-14.7866 38.72923,-57.4652 40.8124,-68.5866 0.68309,-3.6468 -2.0241,-14.6469 -5.52618,-22.4545 -8.11706,-18.0962 -19.84005,-29.7815 -49.35101,-49.1922 -5.53889,-3.6432 -12.51389,-8.6055 -15.5,-11.0273 -2.98611,-2.4218 -10.78779,-7.9193 -17.33706,-12.2166 -6.54928,-4.2974 -14.67451,-10.1604 -18.05607,-13.0291 -7.68605,-6.5203 -9.508,-7.4937 -14.02582,-7.4937 -3.28007,0 -5.05233,1.3404 -18.81574,14.2308 -22.25535,20.8436 -43.95274,43.0155 -50.05266,51.1473 -14.12351,18.828 -38.48245,54.9959 -44.63345,66.2712 -2.59767,4.7617 -5.58522,6.6955 -10.14377,6.5659 -8.48081,-0.2411 -10.42451,-8.9302 -6.98267,-31.2152 3.41648,-22.1207 10.12757,-39.3473 32.72462,-84 13.35891,-26.3978 16.29829,-33.8943 21.76166,-55.5005 5.54261,-21.9196 7.09562,-42.3649 4.10477,-54.0394 -1.87452,-7.317 -9.31778,-22.2226 -14.46147,-28.9601 -2.09948,-2.75 -7.61284,-11.3 -12.25191,-19 -4.63908,-7.7 -10.4833,-16.925 -12.98716,-20.5 -6.65678,-9.5045 -9.89241,-15.2241 -21.49691,-38 C 73.00018,1200.6774 51,1151.7639 51,1147.7823 c 0,-0.6203 -1.29445,-4.8637 -2.87655,-9.4297 -1.5821,-4.5661 -3.41604,-11.6527 -4.07542,-15.7481 -1.90507,-11.8325 -7.90635,-42.4768 -10.56464,-53.9463 -3.25418,-14.0405 -7.11252,-40.2943 -8.45038,-57.5 -0.59873,-7.7 -1.77934,-20.16426 -2.62358,-27.69846 -1.00728,-8.9891 -1.20702,-14.3177 -0.58103,-15.5 0.59516,-1.1239 0.63582,-8.9476 0.1081,-20.8015 -2.01031,-45.1572 -0.56034,-109.0329 2.87154,-126.5 1.13466,-5.775 2.76165,-15.225 3.61553,-21 3.17213,-21.4536 9.56649,-57.1129 10.58148,-59.0094 0.5772,-1.0785 2.83261,-8.6051 5.01203,-16.7258 2.17942,-8.1206 5.05115,-18.3867 6.38163,-22.8135 1.33047,-4.4268 4.71341,-17.6544 7.51765,-29.3947 5.06947,-21.224 9.14344,-33.1781 15.86659,-46.5566 3.21789,-6.4033 6.35567,-16.571 12.65279,-41 2.60577,-10.1088 5.42063,-18.6721 8.49162,-25.8329 1.13995,-2.6581 2.07264,-5.6281 2.07264,-6.6 0,-2.0029 -8.44769,-9.6564 -18.04393,-16.3477 -7.90998,-5.51544 -16.36205,-9.14082 -27.44987,-11.77418 -7.07456,-1.6802 -9.43736,-1.83769 -14.71691,-0.98094 -9.78371,1.58768 -11.62493,1.35392 -14.86621,-1.88736 C 18.5993,517.41139 18.01313,512.5122 20.51233,508.9441 22.34189,506.33204 34.42426,498.68224 42,495.33946 c 18.07848,-7.97709 28.76112,-10.0325 60.11846,-11.56714 14.03461,-0.68686 16.35154,-1.03636 17.52701,-2.64391 2.84345,-3.88865 0.83089,-30.68667 -2.98027,-39.68355 -2.0457,-4.82921 -11.68836,-13.24663 -25.22903,-22.0233 -6.56489,-4.25518 -13.80904,-9.26077 -16.0981,-11.12354 -2.94168,-2.39385 -7.63276,-4.47887 -16,-7.11145 C 52.82713,399.13803 43.9,395.9809 39.5,394.1707 35.1,392.36051 27.26806,389.4534 22.0957,387.71045 6.48885,382.45136 2,379.35976 2,373.86999 c 0,-5.9051 3.74461,-9.13727 10.63538,-9.17995 6.4171,-0.0397 29.76908,6.97004 37.1299,11.14562 2.8959,1.64277 8.5209,4.0376 12.5,5.32186 3.9791,1.28426 11.95972,4.11172 17.73472,6.28325 5.775,2.17154 12.75,4.26791 15.5,4.65862 2.75,0.3907 8.34725,1.57627 12.43834,2.63461 8.55538,2.21321 22.88564,2.53128 39.20571,0.87019 13.58781,-1.38299 20.26163,-3.3564 22.86243,-6.76029 10.8066,-14.1435 18.65223,-26.94465 20.14337,-32.86648 1.64085,-6.5164 0.40436,-19.31267 -3.55779,-36.81918 -3.79699,-16.77679 -8.18392,-28.07139 -14.83134,-38.18484 -2.46372,-3.74834 -6.17881,-9.50681 -8.25574,-12.79661 -2.07694,-3.28979 -5.47264,-8.01479 -7.54601,-10.5 -2.07336,-2.4852 -6.21006,-8.56855 -9.19266,-13.51855 -2.9826,-4.95 -9.25516,-15.075 -13.93903,-22.5 C 121.87805,204.30119 115,191.19845 115,187.6971 c 0,-6.07128 6.5785,-10.2708 12.57628,-8.02832 1.60804,0.60122 7.20239,5.45731 12.43188,10.7913 10.62862,10.84101 26.15791,24.55842 36.58708,32.31826 3.79762,2.82563 10.05476,7.92436 13.90476,11.33052 3.85,3.40616 9.7,8.15305 13,10.54866 3.3,2.3956 8.25,6.35941 11,8.80847 6.27395,5.58736 13.1454,10.19013 26.46664,17.72843 9.3326,5.28119 11.18391,5.96345 17.08672,6.29699 5.26543,0.29753 7.46262,-0.0558 10.73747,-1.72646 5.0117,-2.55678 5.74099,-5.09265 5.63868,-19.60671 -0.0652,-9.25044 -0.38406,-10.8167 -4.25376,-20.89561 -2.3008,-5.99259 -5.59501,-13.41759 -7.32048,-16.5 -7.24465,-12.94201 -10.97177,-20.36823 -13.21916,-26.339 -1.31172,-3.48493 -3.62223,-8.79529 -5.13447,-11.80081 -2.73777,-5.44125 -18.35714,-29.30067 -23.54389,-35.96458 -1.4983,-1.925 -4.18593,-7.20138 -5.97251,-11.7253 -2.92518,-7.40699 -3.12176,-8.53091 -1.97594,-11.29716 0.69983,-1.68952 2.53668,-3.72564 4.08189,-4.5247 6.23435,-3.2239 9.43336,-1.29228 16.15166,9.75269 2.89143,4.75355 8.62082,13.28944 12.73197,18.96865 4.11116,5.6792 11.36939,17.30082 16.12941,25.82582 15.33236,27.45962 19.98209,33.90683 34.39577,47.69241 12.07833,11.55199 13.85077,12.8568 25,18.40418 16.14443,8.03278 31.04939,11.87148 49.01665,12.62403 8.19069,0.34307 15.04961,0.11482 18.5,-0.61564 6.88187,-1.45691 55.82095,-15.98442 58.3681,-17.32651 1.72351,-0.90811 1.84129,-1.94631 1.37674,-12.13577 -0.79951,-17.53643 -7.45305,-34.5837 -16.76606,-42.9569 -5.91753,-5.32036 -7.34767,-7.99466 -6.54978,-12.24777 0.79327,-4.22848 4.77472,-7.43803 9.22691,-7.43803 5.20843,0 20.63769,6.40392 31.79921,13.19827 7.94132,4.83412 12.47448,8.61432 21.78321,18.16504 6.46524,6.63331 14.34024,15.32918 17.5,19.32415 3.15976,3.99496 6.8177,7.56348 8.12875,7.93003 1.53784,0.42996 4.19927,-0.13857 7.5,-1.60213 2.81395,-1.24772 8.72874,-3.75014 13.14397,-5.56094 4.41524,-1.8108 11.2222,-5.24132 15.1266,-7.62339 9.616,-5.86677 27.2912,-19.83355 32.4148,-25.61397 11.5361,-13.01475 20.6986,-29.3569 28.5155,-50.85993 6.0391,-16.61245 7.8117,-22.82852 11.3778,-39.90053 1.6134,-7.72387 4.2759,-18.18495 5.9166,-23.24685 3.6332,-11.20904 4.8429,-19.308 5.7071,-38.20975 0.4108,-8.98539 1.1794,-15.5142 2.021,-17.16671 1.7031,-3.34418 7.0456,-5.29603 10.6966,-3.90794 5.1719,1.96635 7.2689,7.50135 8.7423,23.07465 3.1906,33.72397 8.1038,57.03726 15.7658,74.80928 4.0733,9.44827 17.8571,32.16935 23.9958,39.55458 4.3364,5.21686 23.1982,22.17193 29.3907,26.41958 13.0317,8.93881 44.054,20.4598 86.8017,32.23611 24.1914,6.66435 48.0449,14.23259 60.5,19.19541 5.5,2.19152 16.975,6.44341 25.5,9.44865 13.924,4.90849 16.5676,5.51872 26,6.00148 23.0515,1.17981 45.164,-7.60308 75.1865,-29.86342 8.3294,-6.1759 32.1995,-28.43977 36.8135,-34.33638 1.375,-1.75722 5.5764,-6.74327 9.3365,-11.08012 11.8592,-13.67814 15.1985,-19.6634 35.2019,-63.09324 3.8919,-8.44984 10.438,-10.40648 16.0477,-4.79672 3.1918,3.19177 3.1708,8.48039 -0.078,19.68689 -4.5583,15.72323 -9.4289,24.4189 -29.7255,53.07013 -8.5526,12.07294 -24.9148,55.38499 -34.849,92.24777 -1.116,4.1411 -1.896,10.37961 -1.91,15.27496 -0.021,7.44987 0.3165,8.95015 3.3865,15.04639 5.5044,10.93017 10.668,16.50966 25.4113,27.45793 7.5233,5.58673 18.1787,13.93143 23.6787,18.54379 5.5,4.61237 12.925,9.85173 16.5,11.64304 10.4984,5.26036 15.3107,6.04415 36.5,5.94481 18.1004,-0.0849 19.5101,-0.23526 29.7741,-3.17669 6.4602,-1.85135 14.5883,-5.14381 20.3002,-8.22301 5.2394,-2.82446 11.3113,-5.7652 13.493,-6.53497 2.1818,-0.76978 6.8283,-3.44144 10.3255,-5.93703 8.2751,-5.90495 13.0466,-7.86697 17.2255,-7.083 3.878,0.72752 7.3832,4.7319 7.378,8.42864 0,3.25596 -3.1527,8.54687 -6.1986,10.41804 -14.2167,8.7337 -18.851,12.01299 -25.0541,17.72848 -3.984,3.67083 -10.1277,8.98874 -13.6527,11.81758 -10.1917,8.17894 -19.3328,19.91662 -22.4986,28.88956 -1.3678,3.87666 -1.3316,4.32323 0.5443,6.70802 6.6431,8.44538 21.1767,11.50243 58.3634,12.27636 35.2248,0.73311 36.8024,0.72291 79,-0.51042 30.2792,-0.88498 37.3508,-1.37618 44.5,-3.09102 25.1129,-6.02364 43.1256,-11.10036 55.5265,-15.64965 5.4854,-2.01234 15.1485,-5.3511 21.4735,-7.41947 6.325,-2.06836 18.4125,-7.20129 26.8612,-11.4065 8.4486,-4.20521 16.4016,-7.64584 17.6733,-7.64584 3.1827,0 8.1058,4.38006 9.4288,8.38868 2.8257,8.56212 -5.5691,16.73797 -40.8458,39.78062 -3.0896,2.01812 -7.6425,5.14011 -10.1175,6.93777 -6.7913,4.93269 -23.4953,15.22357 -37.5,23.10272 -7.5862,4.26804 -21.8995,10.84157 -38.5,17.68154 -9.1923,3.78752 -33.8224,17.11876 -40.1174,21.71381 -10.434,7.61642 -23.7898,24.07476 -32.3743,39.89486 -4.7517,8.7569 -13.0598,29.6868 -16.4733,41.5 -1.192,4.125 -2.7842,9.3 -3.5382,11.5 -3.3099,9.6565 -2.6236,24.3061 1.5227,32.5068 3.0317,5.9964 14.2571,15.5222 31.258,26.5257 6.2518,4.0463 11.5752,6.5363 18.5,8.6531 9.2115,2.816 11.0627,3.0172 35.2225,3.8284 45.26,1.5196 56.6284,2.5181 79,6.9387 26.5572,5.2477 38.0081,9.7368 44.9213,17.6105 3.4807,3.9643 3.4837,3.9767 1.9703,8.318 -1.87,5.3643 -14.1761,10.2877 -32.7596,13.1065 -6.9476,1.0538 -16.682,3.1284 -21.632,4.6102 -4.95,1.4818 -13.05,3.4846 -18,4.4505 -4.95,0.966 -15.3,3.1141 -23,4.7736 -21.2206,4.5736 -31.8178,6.735 -57.5,11.7281 -38.88,7.559 -52.3729,12.731 -66.6029,25.5295 -4.3434,3.9065 -10.3721,8.785 -13.3971,10.8411 -14.1606,9.6252 -42.2995,23.5144 -75.7113,37.371 -6.7162,2.7853 -12.3904,5.5466 -12.6093,6.1363 -0.6296,1.696 3.9587,26.1708 6.7474,35.9916 1.3931,4.9057 4.6131,19.5307 7.1558,32.5 2.5426,12.9692 5.2287,25.0429 5.9691,26.8304 1.3343,3.2211 1.4074,3.25 8.2232,3.25 10.7974,0 51.335,6.0664 67.7251,10.135 12.6751,3.1464 60.6221,19.5456 85,29.0724 4.4,1.7195 12.9465,5.5847 18.9921,8.5893 6.0457,3.0046 12.7957,6.1036 15,6.8867 6.9616,2.4732 27.1279,8.246 36.1767,10.3559 10.1484,2.3664 14.6136,4.8141 16.3268,8.9501 2.7136,6.5511 -1.7734,12.2138 -12.9646,16.362 -13.5281,5.0144 -29.9133,8.4035 -49.031,10.14136 -9.563,0.8694 -25.9088,4.9324 -32.6242,8.1093 -9.1339,4.321 -17.3774,15.9998 -17.3742,24.6147 0,5.0596 2.4883,10.4014 6.0586,13.0156 9.7734,7.1563 71.595,13.2309 95.5591,9.3896 14.9268,-2.3926 17.9471,-2.2095 21.4576,1.3011 5.25,5.25 2.8859,12.6409 -4.8425,15.1394 -2.0539,0.664 -5.5344,2.2412 -7.7344,3.5049 -4.5374,2.6062 -34.0036,12.5815 -61.5,20.8197 -40.0167,11.9893 -49.8586,16.125 -56.3098,23.6618 -5.963,6.9663 -7.5262,16.8777 -3.2897,20.8576 3.2266,3.0312 21.974,9.9372 33.0995,12.1928 26.7736,5.4283 38.1082,6.9007 53.122,6.9007 12.1359,0 16.3031,1.123 18.3484,4.9446 2.3695,4.4275 -0.044,11.0653 -4.6732,12.855 -1.5385,0.5947 -7.0722,1.3617 -12.2972,1.7045 -13.5322,0.8876 -33.4633,3.3337 -40.5728,4.9793 -7.1982,1.6661 -21.5353,4.0165 -36.4696,5.9787 -10.1916,1.339 -29.1114,6.9522 -36.5421,10.8413 -5.0736,2.6555 -13.3612,12.6411 -17.8047,21.4526 -1.4578,2.8908 -4.6566,8.2471 -7.1084,11.9029 -2.4519,3.6558 -6.5593,10.7157 -9.1277,15.6886 -5.8422,11.3115 -10.1863,18.0071 -18.1864,28.0305 -3.4582,4.333 -8.1485,10.633 -10.4228,14 -2.2744,3.3671 -6.0514,8.372 -8.3934,11.122 -16.549,19.432 -16.562,19.4525 -15.8583,24.9515 1.696,13.2538 4.4465,23.883 7.1801,27.7479 1.5433,2.1821 4.1561,6.3878 5.8061,9.346 5.5212,9.8987 10.3009,16.0304 22.0777,28.3228 10.8572,11.3325 20.9434,20.2756 29.4223,26.0877 1.925,1.3196 5.7862,4.4568 8.5803,6.9717 7.9926,7.1934 14.0625,12.0555 26.1723,20.9639 6.1889,4.5528 11.9264,9.2398 12.75,10.4156 1.746,2.4928 1.9728,8.9361 0.4169,11.8433 -0.5943,1.1104 -2.5593,2.6368 -4.3667,3.392 -2.884,1.205 -4.3122,1.1346 -11.6695,-0.5749 -9.1703,-2.1308 -46.5452,-14.0863 -70.6135,-22.5878 -8.3767,-2.9588 -15.731,-5.3797 -16.3431,-5.3797 -2.0861,0 -33.9482,-9.0253 -40.2927,-11.4133 -8.2277,-3.097 -20.9968,-6.5867 -24.1007,-6.5867 -1.3445,0 -3.9881,1.0125 -5.8748,2.25 -1.8866,1.2375 -4.7897,2.9925 -6.4513,3.9001 -8.1043,4.4265 -19.6118,24.527 -24.1761,42.2294 -4.9243,19.0983 -3.8832,31.0122 4.4742,51.2015 3.6464,8.8089 6.806,14.483 20.5498,36.9038 13.6127,22.207 20.8773,43.3263 20.926,60.835 0.017,5.9826 -0.3553,7.3638 -3.0291,11.25 -2.4958,3.6275 -3.6082,4.4302 -6.1394,4.4302 -3.3272,0 -12.7735,-5.0173 -26.1693,-13.8995 -10.7477,-7.1263 -25.2556,-13.6006 -52.102,-23.2511 -9.623,-3.4592 -31.2358,-8.8298 -35.5917,-8.8443 -2.5418,-0.01 -12.9077,9.9272 -19.1729,18.377 -12.5473,16.9226 -22.7363,45.855 -22.7561,64.6179 -0.014,12.7481 1.4128,19.5494 5.9412,28.3312 4.3082,8.3548 4.9169,11.9692 2.578,15.3085 -1.9344,2.7617 -6.8982,4.7382 -9.966,3.9682 -4.6092,-1.1568 -18.5287,-12.7121 -27.6174,-22.9265 -7.4115,-8.3296 -10.2534,-12.5292 -15.6246,-23.0895 -6.6202,-13.016 -14.8694,-30.8642 -18.5301,-40.0919 -7.2695,-18.3249 -14.0158,-27.9238 -22.8017,-32.443 -9.1448,-4.7038 -23.8768,-6.2637 -33.9181,-3.5913 -8.661,2.305 -8.4979,1.6176 -5.1169,21.5676 4.8477,28.6048 7.9585,43.0708 14.5081,67.4667 2.5102,9.35 6.339,25.775 8.5083,36.5 2.1693,10.725 5.2847,25.125 6.9231,32 1.6384,6.875 4.5914,21.6736 6.5622,32.8859 1.9708,11.2122 3.7749,20.696 4.0092,21.075 0.2342,0.3791 1.7826,9.8903 3.4408,21.1361 1.6582,11.2459 3.7192,23.7951 4.58,27.8872 3.7263,17.7145 11.7661,81.6993 14.4519,115.0158 1.9991,24.7982 7.619,77.0336 8.6339,80.25 0.7795,2.47 2.4351,2.1836 6.4397,-1.1136 4.2126,-3.4686 17.4376,-9.7792 23.2525,-11.0954 2.3239,-0.5261 6.9253,-1.8929 10.2253,-3.0374 16.8504,-5.8443 31.1401,-7.3892 62.6263,-6.7709 23.7655,0.4668 27.0165,0.7365 32.8737,2.7277 3.575,1.2154 7.9665,3.1106 9.7588,4.2117 4.0938,2.5148 7.8854,8.9588 8.7438,14.8602 0.7625,5.2424 -1.8104,30.3477 -4.1151,40.1532 -1.5997,6.8061 -8.8783,20.9065 -12.1073,23.4547 -8.2513,6.5115 -30.3701,13.5143 -53.2936,16.8727 -35.392,5.1852 -86.2032,5.1839 -98.6158,0 -2.7258,-1.1388 -3.5308,-2.2579 -4.8117,-6.689 -0.8461,-2.9268 -1.9994,-9.8031 -2.563,-15.2808 -0.5635,-5.4777 -1.4389,-12.6777 -1.9453,-16 -0.5063,-3.3223 -1.215,-9.6406 -1.5748,-14.0406 -0.3598,-4.4 -1.2753,-12.2929 -2.0345,-17.5397 -2.6464,-18.2897 -8.3471,-70.609 -9.9111,-90.9603 -1.6974,-22.0875 -2.8108,-32.8289 -5.027,-48.5 -0.7778,-5.5 -2.3613,-17.875 -3.519,-27.5 -1.1577,-9.625 -3.4045,-24.25 -4.9928,-32.5 -1.5883,-8.25 -3.84,-21.75 -5.0036,-30 -1.1637,-8.25 -2.7474,-17.7773 -3.5194,-21.1719 -0.7719,-3.3945 -2.5566,-12.9847 -3.9658,-21.3116 -1.4092,-8.3269 -3.9176,-21.0745 -5.5741,-28.3281 -1.6565,-7.2536 -3.9213,-17.6884 -5.0329,-23.1884 -4.065,-20.113 -7.1252,-33.3588 -11.4361,-49.5 -5.3024,-19.8536 -10.6343,-44.856 -14.0655,-65.9555 -1.3903,-8.5495 -3.1001,-16.1308 -3.7996,-16.8474 -1.0444,-1.0699 -5.9076,-0.8275 -27.1833,1.3546 -22.9217,2.3509 -29.9523,2.6516 -60.9349,2.6063 -23.1334,-0.034 -40.2778,-0.5589 -50.5,-1.5464 -8.512,-0.8223 -21.7764,-1.996 -29.4764,-2.6082 -7.7,-0.6123 -20.75,-1.957 -29,-2.9882 -8.25,-1.0313 -19.95,-2.397 -26,-3.0351 -6.05,-0.638 -20,-2.3014 -31,-3.6965 -11,-1.395 -20.88802,-2.5921 -21.97337,-2.66 -1.91847,-0.1202 -1.97687,0.6692 -2.09937,28.3764 -0.0693,15.675 -0.41538,30.3 -0.76905,32.5 -0.93151,5.7945 -2.51073,26.2834 -3.62261,47 -0.53134,9.9 -1.62643,22.725 -2.43353,28.5 -0.80711,5.775 -1.97596,16.125 -2.59745,23 -0.6215,6.875 -2.20049,18.125 -3.50888,25 -1.30838,6.875 -2.65935,15.2 -3.00215,18.5 -0.34279,3.3 -1.04319,8.25 -1.55643,11 -0.51325,2.75 -1.82973,12.7516 -2.92553,22.2259 -1.09579,9.4742 -2.45423,19.2869 -3.01877,21.806 -0.56453,2.519 -1.69858,10.7424 -2.5201,18.2741 -0.82152,7.5317 -2.15728,17.069 -2.96836,21.194 -0.81107,4.125 -2.13987,12.9783 -2.95288,19.6741 -0.81302,6.6957 -2.43108,17.7207 -3.59569,24.5 -1.16461,6.7792 -3.84274,24.0259 -5.9514,38.3259 -3.78742,25.6847 -6.84975,43.2152 -13.56358,77.6457 -1.89247,9.7051 -3.44085,18.1426 -3.44085,18.75 0,1.8045 1.9245,1.3287 14,-3.4613 16.50185,-6.5459 35.82205,-10.4175 52,-10.4204 20.1339,0 40.7078,3.9606 50.6672,9.7625 3.2055,1.8674 6.1797,4.8203 8.8328,8.7695 3.9351,5.8574 3.9966,6.0884 3.7889,14.2319 -0.2761,10.8316 -1.6917,18.6187 -5.4853,30.174 -6.8352,20.8202 -18.1252,32.8977 -35.3036,37.7662 -5.9709,1.6922 -51.6894,2.4384 -74.5,1.2159 z m 68.6516,-29.4329 c 7.3257,-3.0609 10.9054,-8.0802 14.8998,-20.8917 2.8361,-9.0962 2.9337,-15.5549 0.2753,-18.2092 -2.4888,-2.4849 -15.4528,-4.4002 -29.784,-4.4002 -22.86386,0 -39.63108,4.5027 -60.09574,16.1383 C 475.55154,2115.2756 472,2119.1604 472,2125.1459 c 0,7.5249 2.34357,10.43 9.5,11.7764 1.1,0.2069 18.73471,0.4748 39.18823,0.5953 31.94587,0.1882 37.72037,0 40.96337,-1.3583 z M 987,2112.6249 c 3.575,-0.5463 10.325,-1.4526 15,-2.014 9.7685,-1.1732 30.7022,-7.3619 33.1608,-9.8034 2.2767,-2.2611 5.8392,-15.6449 5.8392,-21.9374 0,-4.6207 -0.2877,-5.3082 -2.75,-6.5725 -12.024,-6.1737 -37.0836,-9.7584 -54.9872,-7.8657 -8.6685,0.9163 -11.7334,1.7639 -20,5.5312 -5.3696,2.447 -10.8878,4.7797 -12.2628,5.1838 -8.8697,2.6071 -21.8235,13.641 -23.8139,20.2845 -1.8907,6.3107 -1.3167,12.0256 1.5293,15.2268 0.8127,0.9141 25.5943,2.7335 38.7846,2.8475 7.15,0.062 15.925,-0.3346 19.5,-0.8808 z m -33.6863,-440.681 c 0.4596,-7.252 1.7795,-13.799 5.0975,-25.2857 2.4625,-8.525 5.2271,-17.3 6.1435,-19.5 2.5709,-6.1722 9.1476,-17.0965 16.1856,-26.8856 3.5136,-4.8872 6.0219,-9.2408 5.5741,-9.6749 -1.5778,-1.529 -16.0944,-2.8621 -38.7457,-3.558 l -22.8975,-0.7035 -3.0856,-2.757 c -2.5938,-2.3175 -3.0856,-3.4842 -3.0856,-7.3197 0,-3.8215 0.5317,-5.094 3.2723,-7.8321 l 3.2723,-3.2692 26.2277,0.026 c 24.8644,0.025 26.7735,0.1616 36.7277,2.6332 5.775,1.4339 17.025,3.6286 25,4.8771 16.7011,2.6146 31.2503,6.0869 50.1649,11.9723 23.0635,7.1763 34.1559,11.2637 39.8351,14.6787 6.1769,3.7144 7,3.9326 7,1.8557 0,-2.0879 -13.5071,-27.6706 -19.2939,-36.5432 -11.2237,-17.2085 -20.2096,-40.7053 -23.2095,-60.6895 -1.9381,-12.9107 -0.6665,-31.6241 2.7148,-39.9511 3.0081,-7.4079 9.0178,-17.6811 16.1958,-27.6857 3.076,-4.2874 5.5928,-8.0613 5.5928,-8.3864 0,-1.1847 -20.7201,0.7544 -28.7404,2.6896 -10.1196,2.4417 -14.5479,4.2464 -18.4257,7.5094 -4.4993,3.7859 -10.795,3.537 -14.245,-0.563 -5.6595,-6.726 -1.7192,-14.8926 9.826,-20.3653 18.5561,-8.796 59.1614,-12.8796 90.0851,-9.0597 16.0778,1.986 15.7745,1.9085 33.6751,8.6135 8.6213,3.2292 19.4952,6.7621 24.1643,7.8507 4.669,1.0887 13.1402,3.7439 18.8249,5.9005 15.8101,5.9979 30.8357,10.0339 30.8357,8.2827 0,-0.4423 -3.4839,-3.4686 -7.742,-6.725 -17.8701,-13.6661 -45.1638,-43.0796 -50.8961,-54.8489 -1.856,-3.8105 -3.9942,-7.6355 -4.7517,-8.5 -4.0625,-4.6366 -7.5949,-15.2942 -9.6356,-29.0718 -0.611,-4.125 -1.9696,-10.65 -3.0191,-14.5 -2.5914,-9.5055 -2.9456,-26.7432 -0.6405,-31.1667 3.3155,-6.3625 13.2077,-6.3416 16.6162,0.035 0.7872,1.4726 1.9056,2.5194 2.4853,2.3262 0.5797,-0.1932 3.9856,-4.6372 7.5687,-9.8755 3.5832,-5.2383 10.3861,-15.103 15.1177,-21.9216 4.7316,-6.8186 10.6153,-16.6724 13.0749,-21.8974 2.4597,-5.225 7.0361,-13.469 10.1698,-18.3199 3.1337,-4.851 7.2542,-11.9108 9.1566,-15.6885 3.1899,-6.3343 10.7299,-16.6784 14.4373,-19.8066 3.3449,-2.8223 17.9315,-9.0079 25.0585,-10.6263 4.125,-0.9367 12.9,-2.3262 19.5,-3.0878 15.0577,-1.7374 20.0714,-3.0775 18.5178,-4.9495 -0.6149,-0.7409 -6.3682,-3.0295 -12.7851,-5.0858 -11.2603,-3.6083 -11.9004,-3.9687 -18.3604,-10.3371 -8.0407,-7.9267 -9.0856,-10.8194 -7.7613,-21.4864 2.2532,-18.1491 9.7074,-28.6264 26.6015,-37.3898 4.3365,-2.2495 17.7584,-7.1876 30.2875,-11.1432 12.375,-3.907 23.1377,-7.3379 23.9172,-7.6242 3.2048,-1.177 -1.0399,-2.5176 -10.9743,-3.466 -16.1895,-1.5456 -32.4441,-4.569 -37.3611,-6.9493 -6.5383,-3.1652 -12.3444,-9.3189 -15.9271,-16.881 -2.8542,-6.0244 -3.1539,-7.5634 -3.1458,-16.1586 0.01,-8.9959 0.2156,-9.9245 3.9035,-17.5 2.8181,-5.7886 5.7181,-9.8042 10.4911,-14.5267 7.6715,-7.59026 15.2832,-11.88246 27.1234,-15.29446 7.3712,-2.1241 13.9039,-3.2324 38.4608,-6.525 3.3267,-0.446 5.0868,-1.1828 5.2851,-2.2124 0.2868,-1.4896 -6.7365,-4.5371 -28.7728,-12.4847 -3.575,-1.2894 -9.875,-3.7613 -14,-5.4931 -15.0985,-6.339 -74.5641,-27.0424 -86.2698,-30.0356 -14.702,-3.7594 -54.4157,-9.928 -63.9166,-9.928 -4.7047,0 -4.8136,0.069 -4.8136,3.0657 0,6.5037 0.8413,6.9343 13.5459,6.9343 14.9639,0 33.6775,2.9784 49.9541,7.9506 9.7124,2.9669 33.0139,15.0852 44.1786,22.9758 5.8573,4.1396 6.2704,4.7057 7.9435,10.8867 1.6595,6.1307 1.6668,6.9948 0.1211,14.4699 -0.9041,4.3723 -2.4421,8.8318 -3.4177,9.9098 -2.1962,2.4268 -11.751,7.76886 -20.134,11.25686 -3.4697,1.4437 -12.4697,5.4752 -20,8.9589 -7.5303,3.4836 -19.3165,8.0048 -26.1915,10.0471 -6.875,2.0423 -17.675,5.4478 -24,7.5678 -15.178,5.0875 -25.348,7.5982 -38.5927,9.5278 -5.999,0.874 -13.3823,2.1998 -16.4073,2.9463 -3.025,0.7465 -9.1,1.8737 -13.5,2.5049 -4.4,0.6312 -11.4193,2.0061 -15.5985,3.0552 -7.2069,1.8092 -13.0275,2.8415 -27.9015,4.9484 -3.575,0.5063 -14.15,2.0776 -23.5,3.4915 -9.35,1.414 -19.7,2.9785 -23,3.4767 -3.3,0.4982 -12.75,2.06 -21,3.4707 -14.8907,2.5462 -20.8446,3.2081 -54.5,6.0594 -9.625,0.8154 -20.65,1.9371 -24.5,2.4927 -3.85,0.5555 -18.25,1.4449 -32,1.9763 -13.75,0.5315 -27.7,1.4208 -31,1.9764 -3.3,0.5555 -21.975,1.6921 -41.5,2.5256 -27.7563,1.185 -41.0623,1.2962 -61,0.5097 -60.488,-2.3862 -103.3586,-5.1212 -133.5,-8.5167 -7.15,-0.8055 -22,-2.1585 -33,-3.0067 -11,-0.8483 -22.7,-1.9845 -26,-2.525 -6.7156,-1.1 -20.5908,-2.4684 -40,-3.945 -23.39152,-1.7796 -32.84369,-3.1256 -43.5,-6.1948 -22.74872,-6.5519 -35.69197,-9.7861 -45.38016,-11.3394 -5.56591,-0.8924 -14.75518,-2.4853 -20.4206,-3.54 -10.89244,-2.0276 -16.04892,-2.311 -23.49074,-1.291 -5.365,0.7353 -5.64677,1.2256 -8.68628,15.1129 -2.50105,11.4272 -2.54153,18.5254 -0.16235,28.4669 1.57807,6.594 2.68963,8.7591 7.70108,15 7.69216,9.5793 10.46974,12.1558 19.43905,18.0319 10.43721,6.8378 11,7.4514 11,11.9937 0,6.1216 -3.87427,9.3813 -12.21134,10.2741 -3.60905,0.3865 -8.07543,0.3893 -9.92529,0.01 -7.44036,-1.5406 -20.34394,-5.587 -25.69296,-8.057 -3.11872,-1.4401 -8.45953,-3.6777 -11.86846,-4.9725 -3.40893,-1.2947 -9.20013,-4.1647 -12.86933,-6.3777 -3.66921,-2.213 -8.98008,-4.7779 -11.80195,-5.6998 -7.09429,-2.3178 -10.2359,-4.0099 -16.80665,-9.0524 -3.1218,-2.3958 -9.1968,-6.2485 -13.5,-8.5616 -4.30321,-2.3132 -10.25314,-6.6248 -13.22206,-9.5814 l -5.39804,-5.3755 -9.43352,9.3328 c -9.06198,8.9652 -22.50931,25.8343 -28.9631,36.3328 -8.38787,13.6448 -23.9539,41.8427 -26.77004,48.494 -1.7479,4.1283 -4.66734,11.6777 -6.48765,16.7765 -3.75153,10.5082 -7.01827,14.2295 -12.49148,14.2295 -7.77764,0 -10.67118,-6.0845 -13.07791,-27.5 -1.83702,-16.3462 -1.83932,-33.9485 -0.007,-57.0711 1.74225,-21.9913 2.4853,-26.6662 7.37958,-46.4289 4.47039,-18.0511 8.59174,-28.8441 18.86124,-49.3939 8.91691,-17.8432 9.46708,-16.3053 -8.43289,-23.5725 -32.58716,-13.22996 -37.25741,-13.90346 -66.92733,-9.65106 -29.82767,4.2749 -45.73114,11.11636 -58.61803,25.21666 -2.6645,2.9154 -5.75315,5.5891 -6.86367,5.9415 -4.62561,1.4681 -10.87169,-3.9481 -10.87169,-9.4273 0,-6.5408 10.76764,-26.99776 26.22282,-49.81986 22.77258,-33.6274 61.73753,-65.234 90.74535,-73.6086 4.64752,-1.3417 8.62328,-2.9592 8.83502,-3.5945 1.25777,-3.7733 -26.59581,-32.4371 -44.84985,-46.1545 -7.59299,-5.7059 -23.74923,-13.3861 -34.45334,-16.3782 -4.95,-1.3836 -16.18559,-3.3811 -24.96797,-4.4388 -15.58341,-1.8769 -16.03498,-1.9982 -18.75,-5.0368 -3.10973,-3.4804 -3.44729,-5.9028 -1.37704,-9.8818 3.24503,-6.2368 10.71089,-10.4213 27.74552,-15.5507 22.0769,-6.6478 26.97974,-7.1496 69.84949,-7.1496 41.44881,0 48.25006,0.5927 69.97707,6.0985 5.21238,1.3208 9.62285,2.4015 9.80102,2.4015 1.24923,0 3.28424,-8.3608 4.27668,-17.5708 1.81896,-16.88 -0.66791,-38.7521 -7.43933,-65.4292 -3.9825,-15.6897 -6.06973,-21.2667 -11.01862,-29.4412 -4.65345,-7.6865 -4.84688,-12.4626 -0.67374,-16.6357 1.93842,-1.9384 3.93896,-2.9231 5.93885,-2.9231 4.03843,0 41.6467,18.6065 48.87038,24.1783 3.08158,2.3769 8.307,7.4717 11.61204,11.3217 3.30505,3.85 10.27529,11.5961 15.48943,17.2136 5.21414,5.6175 11.82069,13.3247 14.68123,17.1272 6.27337,8.3391 16.49172,28.1015 19.35647,37.4356 3.11832,10.1603 9.10234,35.8681 11.04686,47.458 0.9444,5.6289 2.03722,10.5545 2.42849,10.9458 0.39128,0.3912 5.0858,-1.3993 10.43229,-3.9791 16.45027,-7.9374 28.85259,-12.2709 53.25876,-18.6091 12.90416,-3.3511 32.68712,-8.5655 43.96212,-11.5875 11.275,-3.022 24.73901,-6.4023 29.92002,-7.5118 5.18101,-1.1096 12.15601,-2.8581 15.5,-3.8857 3.34399,-1.0276 8.55498,-2.1913 11.57998,-2.586 3.02497,-0.3947 9.12297,-1.5484 13.55117,-2.5639 9.583,-2.1976 33.7069,-6.8221 41.4488,-7.9457 8.9279,-1.2957 36.4232,-4.8041 51.5,-6.5715 9.4076,-1.1028 15.8042,-2.4071 19.5,-3.9762 3.025,-1.2842 9.3101,-3.0724 13.9668,-3.9737 12.5954,-2.4378 59.6202,-17.4252 77.5194,-24.7064 6.6076,-2.6879 16.5138,-6.452 22.0138,-8.3647 11.3172,-3.9358 48.1797,-13.3025 62.5,-15.8812 12.2235,-2.2011 27.418,-5.6996 87.0901,-20.0521 23.365,-5.6198 55.9255,-14.1645 66.4099,-17.4275 17.9276,-5.5797 57.0371,-15.3779 78,-19.5418 28.4159,-5.6442 69.4621,-7.2408 89.0362,-3.4634 15.1138,2.9166 22.8454,5.9345 40.4374,15.7838 11.9119,6.6692 16.9976,10.1733 22.0948,15.2237 8.517,8.4386 10.3616,12.9513 9.7329,23.8115 -0.5571,9.6231 -3.2318,15.629 -11.3328,25.4472 -7.0431,8.536 -27.768,24.2411 -39.3664,29.8313 -10.4623,5.0427 -28.563,12.3526 -33.0005,13.3273 -3.3214,0.7295 -3.3338,0.7541 -2.8599,5.6863 0.7288,7.5839 1.3116,7.7288 12.4704,3.1 25.2195,-10.4614 54.6509,-24.7979 65.788,-32.0463 3.3,-2.1478 9.7907,-7.3474 14.4239,-11.5549 6.6371,-6.0271 10.9858,-8.9249 20.5,-13.6601 14.4413,-7.1874 21.7899,-9.3492 52.601,-15.4739 38.1662,-7.5868 42.8275,-8.537 56.975,-11.6148 7.425,-1.6153 17.1,-3.6368 21.5,-4.4922 4.4,-0.8554 11.825,-2.6385 16.5,-3.9624 4.675,-1.3239 10.6557,-2.9268 13.2904,-3.5621 2.6516,-0.6394 4.6261,-1.6478 4.4225,-2.2587 -0.5378,-1.6132 -10.8151,-4.5296 -21.7129,-6.1615 -5.66,-0.8475 -24.8601,-1.8047 -47.5,-2.368 l -38,-0.9456 -11.5,-3.4157 c -6.325,-1.8786 -12.8723,-4.1303 -14.5495,-5.0037 -5.5127,-2.8708 -19.1319,-11.4456 -24.6303,-15.5076 -7.6286,-5.6355 -22.4181,-22.0732 -24.892,-27.666 -2.755,-6.228 -4.5071,-23.2383 -3.0973,-30.0705 0.5674,-2.75 1.3105,-7.25 1.6514,-10 1.5096,-12.1785 12.5749,-43.3726 21.026,-59.27434 12.5819,-23.67412 28.2515,-41.24058 46.7303,-52.38718 10.2597,-6.1887 34.1296,-18.05262 46.7614,-23.24147 19.8384,-8.14918 47.4561,-23.47421 45.6174,-25.31299 -0.2404,-0.24039 -6.6652,1.22403 -14.2773,3.25427 -14.1333,3.76953 -34.2646,8.79051 -42.3401,10.56007 -3.9309,0.86139 -67.1504,3.19416 -85,3.13647 -28.6619,-0.0926 -64.6452,-1.21884 -70,-2.19086 -21.8762,-3.97102 -34.5802,-8.84889 -41.3907,-15.89255 -3.2136,-3.32364 -3.9749,-4.90077 -4.3748,-9.06316 -0.7937,-8.25971 3.6148,-21.19507 10.7656,-31.58837 4.2193,-6.13252 4.0341,-7.80986 -0.7501,-6.7952 -2.0625,0.43742 -12.2152,0.6872 -22.5616,0.55506 -18.1858,-0.23226 -19.1172,-0.34511 -28,-3.39228 -14.789,-5.07328 -22.2371,-9.26709 -34.1047,-19.20329 -11.4814,-9.61285 -25.6487,-20.35619 -36.1449,-27.4093 -9.515,-6.39382 -17.5795,-18.48632 -22.5132,-33.75773 -3.7165,-11.50369 -2.2674,-22.15792 7.5402,-55.43706 2.0163,-6.84195 4.3114,-13.98441 5.1001,-15.87212 1.5757,-3.77102 1.8449,-6.19894 0.6841,-6.16795 -0.4125,0.011 -5.6526,3.8475 -11.6447,8.52553 -9.4095,7.34596 -30.4288,20.82479 -40.1848,25.76887 -1.6937,0.85833 -8.2187,3.32924 -14.5,5.49089 -13.5864,4.67566 -23.0741,5.69695 -39.9205,4.29718 -12.0639,-1.0024 -16.6691,-2.428 -59.5,-18.41916 -14.6544,-5.47132 -32.9303,-11.17676 -53.5,-16.70189 -19.6362,-5.27438 -59.6679,-18.55536 -71.696,-23.78596 -12.8715,-5.59739 -23.9075,-13.1006 -37.4016,-25.42882 -14.6121,-13.34954 -19.3655,-18.79246 -25.3812,-29.06295 -2.6429,-4.51204 -6.9222,-11.57871 -9.5097,-15.70371 -5.0311,-8.0205 -11.7089,-23.52202 -14.5508,-33.77713 -1.5569,-5.61813 -2.9327,-8.08639 -3.9427,-7.07301 -0.1919,0.19258 -1.5311,5.62221 -2.976,12.06586 -10.4796,46.73652 -30.5426,85.94447 -53.206,103.97754 -3.2098,2.55402 -9.886,7.87301 -14.836,11.81997 -8.4247,6.71758 -16.2462,11.03514 -35.49997,19.59649 -3.575,1.58966 -6.84384,3.34028 -7.26408,3.89028 -1.0269,1.34396 6.59635,8.12598 12.49492,11.1161 6.43783,3.26352 15.33603,5.23529 27.26233,6.04116 9.1274,0.61675 10.232,0.91408 12.75,3.43207 4.3424,4.34242 3.1416,11.6261 -2.3882,14.48567 -8.3622,4.32424 -37.44612,-0.88228 -50.84537,-9.10218 -7.83657,-4.80742 -21.47192,-18.36573 -29.6565,-29.48895 -7.49863,-10.19096 -29.17949,-34.28541 -32.40365,-36.01093 -2.46198,-1.32088 -2.4608,-1.06207 0.0501,11.02356 2.57235,12.3813 2.79602,40.21014 0.41628,51.79216 -1.88169,9.15802 -7.88188,28.18039 -10.54886,33.44297 -3.2262,6.36605 -13.0602,21.17509 -15.26835,22.99263 -4.81509,3.96335 -14.42112,0.41842 -14.71422,-5.43001 -0.23921,-4.77302 0.48639,-6.56151 6.6433,-16.37459 6.05899,-9.65703 12.21938,-24.60553 13.87697,-33.67316 0.60847,-3.32859 0.45701,-3.75 -1.34785,-3.75 -1.11834,0 -6.20124,1.3315 -11.29531,2.9589 -30.50314,9.74477 -40.82495,12.16553 -54.35888,12.7487 -15.32999,0.66057 -27.15392,-0.96626 -45.63548,-6.27889 -11.32018,-3.25405 -28.88362,-11.51942 -36.35572,-17.10903 -1.69846,-1.27056 -3.36056,-2.03767 -3.69354,-1.70468 -0.33299,0.33298 -0.35185,4.26833 -0.0419,8.74521 1.00994,14.5885 -4.76184,41.44245 -11.95877,55.63979 -9.534,18.80763 -21.42162,34.79635 -27.62455,37.1547 C 247.78358,348.21182 241,343.6269 241,336.96352 c 0,-2.72022 1.00176,-4.493 4.86823,-8.61514 7.00903,-7.47251 19.86654,-28.69225 18.61362,-30.71951 -0.32994,-0.53385 -3.19165,-0.97063 -6.35937,-0.97063 -3.16771,0 -7.98652,-0.66136 -10.70846,-1.46969 -7.77844,-2.30995 -33.45297,-17.5043 -42.6246,-25.2255 C 200.23024,266.12486 193.8,261.01664 190.5,258.61143 c -3.3,-2.40521 -9.14057,-7.00693 -12.97903,-10.22605 -7.64963,-6.41532 -9.64568,-6.17411 -4.20917,0.50865 3.25069,3.99586 8.06698,11.40548 16.94188,26.06423 6.08908,10.05738 10.65185,22.21516 14.33632,38.19998 6.62758,28.75332 6.91317,43.8195 1.05748,55.78808 -3.20818,6.5573 -18.7354,30.09061 -22.46951,34.05517 -6.50709,6.90868 -17.91473,10.18455 -41.17797,11.82485 -9.075,0.63988 -16.63663,1.26296 -16.80361,1.38461 -0.16699,0.12165 1.94716,3.66902 4.6981,7.88304 5.76465,8.83056 5.27642,7.52631 8.57009,22.89425 1.83688,8.5707 2.53542,14.83859 2.53542,22.75 l 0,10.92 3.25,-7.9e-4 c 5.40183,-10e-4 14.79123,-5.13897 20.01975,-10.95435 4.10959,-4.57084 8.81509,-12.90832 12.58706,-22.30247 1.37883,-3.434 6.95267,-6.25801 10.5631,-5.35185 3.34361,0.8392 6.34513,3.82512 7.17705,7.13976 1.03073,4.10673 -3.01099,14.67025 -8.29658,21.6841 -7.26804,9.64453 -14.28033,18.0953 -16.6547,20.07118 -9.23105,7.68184 -22.87421,10.6811 -51.64568,11.35359 -24.70946,0.57754 -48.58568,2.54651 -50.17705,4.13788 -0.78846,0.78846 1.55059,2.35088 8.42794,5.62965 9.69606,4.62258 32.21588,21.1141 39.91415,29.2296 6.51853,6.8719 17.83275,22.6785 21.37602,29.8637 4.97482,10.0881 10.46422,26.7301 9.76523,29.6049 -1.97098,8.1062 -12.41863,10.2319 -16.87338,3.433 -0.91943,-1.4032 -3.3549,-7.1608 -5.41216,-12.7946 -4.20053,-11.5032 -7.56405,-17.7433 -9.56396,-17.7433 -0.84352,0 -2.71137,4.3845 -5.00566,11.75 -2.013,6.4625 -5.90742,16.475 -8.65425,22.25 -2.74683,5.775 -6.08529,13.65 -7.41881,17.5 -2.41858,6.9827 -7.93226,19.8666 -11.34066,26.5 -0.98912,1.925 -2.8041,7.775 -4.0333,13 -4.9754,21.1492 -10.99946,44.7599 -12.5019,49 -0.87699,2.475 -2.94977,9.8642 -4.60617,16.4205 -1.6564,6.5562 -3.65656,13.4639 -4.44479,15.3504 -1.48748,3.5601 -9.92382,50.7261 -11.57214,64.6977 -0.51705,4.3827 -1.60413,10.6827 -2.41572,14 -2.45038,10.0156 -3.7371,49.3203 -3.06195,93.5314 0.34016,22.275 1.06478,45.45 1.61026,51.5 0.54548,6.05 1.63393,20.45 2.41877,31.99996 1.50059,22.0832 5.97419,50.7224 11.6373,74.5 1.63742,6.875 4.5113,19.925 6.38641,29 8.10847,39.2427 12.1184,54.0774 17.57008,65 1.50983,3.025 5.5157,11.6862 8.90194,19.2471 6.41741,14.3289 26.64317,53.9523 31.52182,61.7529 1.54791,2.475 4.24552,6.3 5.9947,8.5 1.74918,2.2 7.0446,10.525 11.7676,18.5 4.723,7.975 10.129,16.525 12.01334,19 3.15695,4.1465 10.49544,16.4482 14.9752,25.1034 2.79756,5.405 4.0453,14.7753 4.11417,30.8966 0.0702,16.4421 -1.03207,24.7393 -5.85,44.0331 -5.36506,21.4848 -9.82059,32.8896 -22.45074,57.4669 C 129.22392,1477.0975 119,1498.6822 119,1500.6305 c 0,2.5014 2.10401,0.1166 11.25175,-12.753 12.8114,-18.0238 24.71991,-30.8756 56.65615,-61.1439 18.22999,-17.2778 29.84288,-27.4297 37.5,-32.7821 6.10066,-4.2644 14.9171,-10.9597 19.5921,-14.8783 15.59685,-13.0737 32.42676,-22.9996 46.21137,-27.2545 3.69125,-1.1393 12.02775,-2.5332 18.52554,-3.0974 16.76524,-1.4557 21.6333,0.2811 22.9144,8.1756 0.46955,2.8935 0.065,4.0473 -2.37773,6.7811 -2.92568,3.2744 -3.01893,3.2997 -15.35857,4.1628 -13.68033,0.9568 -20.53511,2.5725 -28.8794,6.8072 -3.04459,1.5451 -8.29672,4.0178 -11.67141,5.495 -4.04467,1.7705 -7.82942,4.4727 -11.10523,7.9288 -2.73318,2.8836 -8.86534,8.3404 -13.62701,12.1262 -4.76167,3.7859 -8.50502,7.341 -8.31856,7.9004 0.77931,2.3379 29.62289,23.4386 48.1866,35.2512 25.22914,16.054 24.88407,15.7992 37.79004,27.9036 12.15653,11.4015 15.68769,15.7923 20.70996,25.7519 1.925,3.8175 3.91762,6.9886 4.42805,7.047 3.84666,0.4399 7.31197,-39.8595 4.37252,-50.8497 -1.6978,-6.3479 0.52517,-10.9623 6.08326,-12.6275 5.6194,-1.6837 9.86324,0.8876 12.59572,7.6315 1.7193,4.2433 1.99211,7.0979 1.9068,19.9518 -0.14013,21.1146 -2.12571,31.5838 -12.23306,64.5 -7.75645,25.2602 -29.45835,64.1055 -48.79542,87.3414 -6.90933,8.3024 -8.99485,11.7328 -6.10787,10.0465 10.00061,-5.8413 29.70858,-20.5165 38.70007,-28.8173 6.29754,-5.8138 11.75735,-10.5706 12.13291,-10.5706 0.37556,0 3.24951,-3.0067 6.38655,-6.6814 6.19894,-7.2616 26.71121,-25.3178 35.53047,-31.2762 17.20674,-11.6251 49.82761,-27.9135 57.70225,-28.8122 3.67535,-0.4194 4.5844,-0.097 7.25,2.5682 2.21641,2.2164 3.04775,3.9867 3.04775,6.4898 0,3.905 -2.94123,8.2524 -6.27609,9.2766 -10.01309,3.0751 -47.32478,22.8395 -50.62584,26.817 -1.01755,1.2261 -0.91076,3.0034 0.55978,9.3167 1.98811,8.5352 2.35415,30.8434 0.91473,55.7468 -0.64035,11.0786 -0.5451,12.7768 0.66054,11.7762 0.77483,-0.6431 5.18801,-7.2702 9.80707,-14.727 9.28963,-14.9967 23.02856,-32.7185 30.56582,-39.4268 6.43189,-5.7244 21.47658,-15.6928 28.39399,-18.8133 8.59029,-3.8751 18.64599,-4.1274 34.0268,-0.8535 6.86026,1.4603 14.4982,3.3023 16.9732,4.0935 2.475,0.7912 7.2,1.869 10.5,2.3952 3.3,0.5261 11.175,1.8615 17.5,2.9675 6.325,1.106 16.9,2.7147 23.5,3.575 6.6,0.8602 14.925,2.0283 18.5,2.5956 3.575,0.5674 10.775,1.4594 16,1.9823 5.225,0.5229 13.55,1.4043 18.5,1.9587 4.95,0.5543 16.65,1.4894 26,2.0778 9.35,0.5885 20.2996,1.4874 24.3325,1.9977 4.0329,0.5102 17.5329,1.6544 30,2.5427 22.3404,1.5917 36.0462,1.4522 53.6675,-0.5464 4.4,-0.4991 12.725,-1.4176 18.5,-2.0412 5.775,-0.6236 13.65,-1.7509 17.5,-2.5053 3.85,-0.7543 10.825,-2.092 15.5,-2.9726 4.675,-0.8807 12.775,-2.9884 18,-4.684 7.9224,-2.5708 11.1607,-3.0932 19.5,-3.1457 5.5,-0.034 12.475,0.5269 15.5,1.2478 7.7602,1.8491 19.4455,7.3895 25.6002,12.1378 7.6862,5.9298 20.5093,26.1346 24.3852,38.4227 3.2497,10.3024 16.7832,39.4958 21.2145,45.7618 1.0741,1.5189 2.2997,2.5475 2.7233,2.2856 0.4237,-0.2618 1.0494,-4.8796 1.3905,-10.2617 z M 854.0617,519.65139 c -13.9701,-6.69683 -29.3104,-20.58335 -34.8067,-31.50811 -4.5004,-8.94504 -8.9684,-22.80127 -10.7975,-33.48504 -2.2769,-13.29891 -3.9932,-20.48018 -8.6039,-36 -3.8478,-12.95182 -5.1678,-16.01914 -6.3745,-14.81241 -0.3049,0.30483 -1.6804,4.77483 -3.0567,9.93333 -2.5595,9.59303 -9.9802,26.17608 -17.221,38.48358 -5.2403,8.90716 -18.2964,23.78595 -26.9239,30.68274 -10.4421,8.34731 -25.1754,16.71276 -29.4347,16.71276 -7.1759,0 -11.497,-8.76557 -7.2853,-14.77861 0.8566,-1.223 5.9191,-4.78929 11.25,-7.92509 12.2482,-7.20483 26.1203,-20.36608 33.3576,-31.64837 7.762,-12.10039 15.6149,-28.46763 17.8483,-37.20048 2.9313,-11.46125 2.7194,-24.48832 -0.5525,-33.96798 -2.3401,-6.77972 -2.4267,-7.62546 -1.1056,-10.78728 2.6986,-6.45875 8.3726,-8.37511 14.2271,-4.80507 6.8372,4.16928 20.3289,22.11004 27.9094,37.11288 3.4864,6.9 8.4816,25.14879 18.6134,68 4.4419,18.78686 12.0797,28.16623 31.6327,38.84603 7.5341,4.11506 9.904,8.01421 8.0695,13.2765 -2.3989,6.8817 -7.8405,8.13948 -16.7457,3.87062 z M 359.35145,487.90824 c -3.84547,-4.14212 -2.8847,-8.95333 5.74122,-28.75 l 7.40733,-17 -0.0467,-12 c -0.0464,-11.93064 -0.0763,-12.07973 -5.17342,-25.7932 -6.42855,-17.29557 -12.18865,-26.67116 -23.70962,-38.5916 -9.3902,-9.71579 -18.23136,-16.22042 -27.36259,-20.13124 C 309.91442,342.94685 308,340.54828 308,335.35881 c 0,-2.92681 0.70347,-4.55788 2.92308,-6.77749 3.53794,-3.53794 4.50869,-3.56229 19.07692,-0.47847 6.325,1.33889 15.96861,3.1504 21.43024,4.0256 15.44849,2.47553 31.74186,6.95162 47.56976,13.06829 18.65731,7.2101 29.37286,10.4615 34.47765,10.4615 2.2442,0 12.07484,-0.90355 21.84587,-2.00788 9.77103,-1.10433 18.87759,-1.72876 20.23681,-1.38762 5.87504,1.47454 8.32994,9.72269 4.38605,14.73654 -2.64087,3.35732 -5.94713,4.15425 -25.76372,6.20997 -27.08768,2.81001 -28.45551,2.58115 -64.68266,-10.82289 -14.98546,-5.54461 -26.86298,-8.69847 -28.10001,-7.46144 -0.36047,0.36046 1.31457,2.8541 3.72231,5.54141 6.77119,7.55744 14.2477,21.02728 19.32734,34.82055 6.04916,16.42592 7.28586,21.41204 8.1161,32.72241 0.88912,12.11261 -0.0233,15.85123 -9.06611,37.14895 -3.96993,9.35 -7.53301,18.00076 -7.91795,19.22391 -2.00278,6.36382 -11.64994,8.45971 -16.23023,3.52609 z M 236.0607,1141.4124 c 19.11233,-33.5288 24.96343,-41.6339 45.1472,-62.5395 7.58566,-7.857 13.7921,-14.7261 13.7921,-15.2647 0,-1.7711 6.42928,-4.9424 10.02749,-4.9463 4.79186,0 7.16422,1.8966 12.33193,9.8851 4.62755,7.1534 6.40615,8.7023 16.14058,14.0563 3.3,1.815 9.04528,5.5432 12.76729,8.2849 3.722,2.7417 10.16119,6.2511 14.3093,7.7986 4.14811,1.5475 10.61252,4.6688 14.36536,6.9363 3.75284,2.2675 8.55224,4.4033 10.66532,4.7462 l 3.84198,0.6235 -1.72462,-2.6673 c -0.94855,-1.467 -2.37151,-3.6798 -3.16215,-4.9173 -2.13003,-3.3339 -5.50217,-16.3256 -6.1646,-23.75 -0.31896,-3.575 -0.0565,-11 0.58318,-16.5 0.63972,-5.5 1.5284,-13.6 1.97484,-18 1.15768,-11.4098 3.63113,-18.0849 7.90607,-21.3362 3.36836,-2.5618 3.92626,-2.6534 14.57025,-2.393 22.52519,0.5512 57.77917,6.8822 88.95353,15.9745 13.00078,3.7918 21.99279,5.8256 28.11425,6.359 4.95,0.4312 18.225,1.5257 29.5,2.4321 11.275,0.9065 24.8468,2.2759 30.1596,3.0432 5.3127,0.7674 18.3627,2.0787 29,2.9141 10.6372,0.8353 25.4154,2.1835 32.8404,2.9958 59.5139,6.5111 155.0995,10.0761 203,7.5713 12.925,-0.6759 25.525,-1.6348 28,-2.1309 2.475,-0.4961 15.975,-1.3506 30,-1.899 14.025,-0.5483 30.9,-1.6699 37.5,-2.4923 6.6,-0.8225 17.85,-1.9628 25,-2.5341 27.2729,-2.1791 35.5257,-3.1206 52.5,-5.9894 9.625,-1.6267 23.8,-3.8841 31.5,-5.0164 38.0908,-5.6017 44.0439,-6.5742 58.5,-9.5565 6.325,-1.3048 15.325,-3.0492 20,-3.8764 4.675,-0.8272 12.325,-2.2114 17,-3.0761 4.675,-0.8647 13.45,-2.4688 19.5,-3.5646 6.05,-1.0958 16.85,-3.9462 24,-6.3341 7.15,-2.3879 18.625,-6.0191 25.5,-8.0694 6.875,-2.0503 17.225,-5.8962 23,-8.54636 5.775,-2.6503 15.6346,-7.0994 21.9102,-9.8869 11.4339,-5.0788 15.0898,-7.3941 15.0898,-9.5562 0,-3.0973 -10.4253,-9.8638 -30.5,-19.7959 -13.5165,-6.6873 -37.5757,-11.7362 -55.926,-11.7362 -8.132,0 -9.5087,0.2424 -9.9408,1.75 -0.2758,0.9625 -1.2568,5.575 -2.1798,10.25 -0.9231,4.675 -2.4846,10.0851 -3.4701,12.0224 -4.139,8.137 -20.9928,19.2539 -37.7461,24.8977 -11.8788,4.00166 -42.0142,9.22266 -72.2372,12.51536 -7.975,0.8688 -19.675,2.225 -26,3.0138 -24.7309,3.0841 -28.9965,3.526 -43.5,4.5065 -8.25,0.5577 -28.275,1.486 -44.5,2.0628 -16.225,0.5768 -33.55,1.4728 -38.5,1.991 -16.9226,1.7716 -46.9873,2.986 -74,2.989 -14.85,0 -31.95,0.4758 -38,1.0537 -15.2142,1.4531 -71.337,3.1917 -118,3.6555 -42.6829,0.4242 -93.8752,-0.9125 -122,-3.1855 -42.33013,-3.4211 -54.85524,-4.5998 -69.5,-6.5405 -8.525,-1.1296 -19.1,-2.4759 -23.5,-2.9917 -7.26817,-0.852 -15.33933,-2.0205 -44.84495,-6.4928 -12.23559,-1.8546 -22.52809,-5.2723 -43.65505,-14.49596 -9.075,-3.962 -19.1376,-8.2105 -22.36133,-9.4412 -8.27302,-3.1583 -12.40903,-6.7134 -13.1669,-11.3177 -0.33881,-2.0583 -1.70855,-7.2577 -3.04389,-11.5541 -2.87286,-9.2435 -3.07438,-16.5414 -0.82184,-29.7621 1.79074,-10.5102 3.23959,-14.6208 7.14781,-20.2795 4.33665,-6.279 17.06897,-16.4933 26.4788,-21.2422 4.80295,-2.4239 11.10295,-5.9108 14,-7.7487 6.53886,-4.1482 36.64878,-20.2775 50.87595,-27.2534 19.49139,-9.5569 62.99303,-24.4703 79.8914,-27.3886 3.575,-0.6174 9.65,-1.9645 13.5,-2.9936 3.85,-1.029 9.475,-2.177 12.5,-2.5512 3.025,-0.3741 12.475,-2.442 21,-4.5952 8.525,-2.1532 22.025,-5.2749 30,-6.9371 7.975,-1.6622 17.875,-3.8801 22,-4.9286 4.125,-1.0486 16.5,-3.7132 27.5,-5.9215 11,-2.2083 27.875,-5.7821 37.5,-7.9418 9.625,-2.1597 25.375,-5.5807 35,-7.6023 16.9003,-3.5495 33.0239,-7.9717 62.5,-17.1419 12.6509,-3.9357 26.0048,-7.2178 60.5,-14.8696 29.6996,-6.5879 35.4169,-7.9697 48.5,-11.7221 7.7,-2.2084 20.3,-5.9566 28,-8.3293 15.1655,-4.6731 34.5317,-8.5506 54.8981,-10.9916 7.094,-0.8503 14.744,-1.9527 17,-2.4499 2.2561,-0.4972 7.9269,-1.4123 12.6019,-2.0337 4.675,-0.6213 11.875,-1.9647 16,-2.9852 7.8042,-1.9307 26.2641,-4.9524 46,-7.5297 6.325,-0.8259 14.1331,-2.0325 17.3513,-2.6812 4.3341,-0.8736 8.8916,-0.9092 17.5772,-0.1373 9.9387,0.8833 12.4571,1.4706 16.523,3.8535 11.5418,6.7639 22.0556,19.5698 27.0735,32.9755 1.4411,3.85 2.9843,7.3742 3.4292,7.8316 0.819,0.8419 17.463,-5.3714 31.1026,-11.6109 9.914,-4.5352 30.2928,-19.8612 35.6238,-26.7911 11.0862,-14.4111 8.2082,-20.5087 -16.2398,-34.4085 -21.7689,-12.3766 -33.8053,-15.5211 -59.4112,-15.5211 -30.1922,0 -54.9744,3.6102 -92.6954,13.5037 -21.1202,5.5394 -25.3591,6.6845 -62.8342,16.9743 -11.55,3.1714 -22.575,6.1455 -24.5,6.6091 -1.925,0.4636 -9.125,2.1846 -16,3.8243 -6.875,1.6398 -20.825,5.0189 -31,7.5091 -23.6447,5.7868 -44.1254,10.5187 -50.5,11.6675 -11.5006,2.0727 -17.0744,3.3152 -38,8.4709 -24.8446,6.1212 -35.5806,9.4447 -50,15.4783 -13.8923,5.8131 -63.6013,22.1268 -77.5,25.4344 -6.325,1.5052 -12.6846,3.3591 -14.1325,4.1197 -3.8881,2.0426 -13.7159,4.0724 -28.3675,5.8591 -35.2629,4.3 -53.5892,6.7828 -59.5,8.0606 -3.575,0.7729 -16.175,3.2449 -28,5.4935 -11.825,2.2485 -24.875,4.9734 -29,6.0554 -4.125,1.0819 -10.65,2.6318 -14.5,3.4441 -3.85,0.8123 -17.125,4.1933 -29.5,7.5132 -12.375,3.3199 -32.625,8.6697 -45,11.8885 -12.375,3.2187 -24.3,6.6257 -26.5,7.571 -2.2,0.9453 -6.41453,2.5684 -9.36562,3.6069 -5.84728,2.0577 -27.57658,13.5525 -33.03226,17.474 -3.91109,2.8113 -6.98729,3.0703 -11.11502,0.9357 -3.54947,-1.8355 -5.6583,-7.9865 -7.02597,-20.4933 -1.36006,-12.4372 -3.29354,-22.2779 -8.42836,-42.8975 -6.94476,-27.8877 -13.20346,-39.3934 -34.59744,-63.6025 -16.93805,-19.1668 -23.47307,-25.5356 -30.05706,-29.2923 -6.37031,-3.6348 -10.33147,-4.2442 -9.47543,-1.4577 2.46738,8.0316 6.81346,27.1522 8.69418,38.25 2.9861,17.6205 3.24192,42.3008 0.57009,55 -3.27636,15.5726 -10.09639,26.8147 -17.37546,28.6416 -1.86403,0.4679 -3.74785,0.029 -6.23166,-1.4525 -10.10072,-6.024 -16.38064,-7.7665 -38.36121,-10.6441 -8.45043,-1.1063 -20.09177,-1.5265 -41,-1.48 -28.87737,0.064 -44.67072,1.2951 -45.40606,3.5385 -0.19894,0.6069 3.14132,2.3576 7.42279,3.8904 10.37648,3.7149 24.05683,10.7703 31.62669,16.3109 7.88261,5.7695 30.03296,25.6369 36.6282,32.8532 12.71785,13.9153 23.0296,30.2279 23.0296,36.4314 0,3.8621 -3.83474,8.9106 -6.76833,8.9106 -0.82258,0 -2.89872,0.8633 -4.61364,1.9184 -1.71801,1.057 -6.71009,2.3977 -11.11803,2.9859 -10.4528,1.3948 -26.65782,9.2659 -40.41987,19.6327 C 151.47502,943.45704 121,976.06264 121,981.63694 c 0,1.3736 0.19304,1.3449 12.5,-1.855 11.07849,-2.8806 36.79387,-6.1272 48.36637,-6.1063 12.63964,0.023 19.83599,1.6502 37.77183,8.5419 18.25671,7.0151 27.5561,11.4819 33.95663,16.3104 4.50763,3.40046 5.04429,4.26486 6.62174,10.66536 1.9585,7.9465 1.66618,9.7788 -2.22793,13.9649 -3.02348,3.2502 -12.89155,22.4078 -18.39797,35.7172 -3.88725,9.3958 -10.95815,37.2902 -12.49264,49.2828 -1.54036,12.0385 -3.51693,46.966 -2.76826,48.917 0.36086,0.9404 1.06324,1.4581 1.56085,1.1506 0.4976,-0.3075 5.07414,-7.8736 10.17008,-16.8134 z M 770.5,1007.677 c 3.3,-0.5591 27.15,-1.4696 53,-2.0232 25.85,-0.5535 57.125,-1.6769 69.5,-2.4963 31.4588,-2.0831 56.5376,-3.41656 84.5638,-4.49626 13.2351,-0.5099 27.1851,-1.3746 31,-1.9217 3.8149,-0.547 14.8112,-1.9085 24.4362,-3.0256 48.1074,-5.5836 61.6966,-7.4172 75.377,-10.171 24.0569,-4.8425 35.4322,-9.5325 42.6758,-17.5949 9.8147,-10.9241 8.9148,-22.598 -8.0776,-104.7898 -1.1371,-5.5 -3.3858,-14.95 -4.9973,-21 -3.5123,-13.1869 -6.504,-30.1668 -8.545,-48.4996 -1.8924,-16.9983 -4.4367,-29.2286 -8.2552,-39.6829 -3.5551,-9.7332 -7.2987,-15.4428 -14.1845,-21.6337 -6.2269,-5.5986 -10.5395,-6.4827 -23.4676,-4.8113 -4.9641,0.6418 -16.9036,2.0434 -26.5324,3.1146 -9.6287,1.0713 -22.9037,3.0509 -29.5,4.3992 -6.5962,1.3483 -14.4682,2.9258 -17.4932,3.5055 -7.6556,1.4673 -36.351,5.8207 -43,6.5236 -12.4929,1.3207 -35.3821,6.0784 -48.5,10.081 -24.9141,7.602 -41.9088,12.4262 -46,13.0578 -2.2,0.3397 -8.95,1.8953 -15,3.457 -6.05,1.5617 -16.625,3.9755 -23.5,5.364 -18.3836,3.7128 -40.4492,9.1691 -49,12.1166 -4.125,1.4218 -12.45,3.9095 -18.5,5.5281 -6.05,1.6187 -16.3807,4.5419 -22.9571,6.4961 -6.5765,1.9543 -20.5265,5.3131 -31,7.464 -10.4736,2.151 -25.1179,5.3031 -32.5429,7.0046 -7.425,1.7016 -21.6,4.6743 -31.5,6.606 -9.9,1.9317 -22.5,4.6398 -28,6.0179 -5.5,1.3781 -16.525,3.8629 -24.5,5.5218 -7.975,1.6588 -21.25,4.7411 -29.5,6.8496 -8.25,2.1085 -18.375,4.3459 -22.5,4.9721 -4.125,0.6262 -10.875,1.9726 -15,2.9921 -4.125,1.0194 -9.3,2.1639 -11.5,2.5432 -15.32989,2.643 -55.40329,16.6595 -75.5,26.4076 -16.62934,8.0663 -44.44022,23.2754 -49.56331,27.1051 -2.57514,1.925 -6.35092,4.4 -8.39063,5.5 -2.03971,1.1 -6.597,4.2817 -10.12731,7.0704 -3.53031,2.7887 -8.12923,6.1022 -10.21982,7.3631 -5.32651,3.2129 -6.29663,5.2079 -8.05556,16.5665 -2.16606,13.9878 -0.41761,20.3427 7.27275,26.4336 4.09061,3.2398 25.55385,13.8713 37.08388,18.369 10.14424,3.9571 39.7963,9.6237 74,14.1416 29.14235,3.84936 36.72859,4.70056 54.5,6.11476 10.45,0.8316 24.625,1.9776 31.5,2.5466 6.875,0.5691 21.275,1.4182 32,1.887 25.9656,1.135 170.7154,0.3453 178.5,-0.9738 z m 67.534,-54.77036 c -4.6712,-2.3564 -6.5916,-6.0561 -9.2471,-17.8149 -2.0131,-8.914 -2.2397,-12.5508 -2.2077,-35.4335 0.041,-29.1826 1.2684,-38.4989 7.0444,-53.4631 10.6163,-27.5038 22.3311,-36.3228 52.678,-39.6559 14.9672,-1.6439 26.8062,1.2843 36.6207,9.0575 9.3466,7.4026 17.6679,32.3172 23.2329,69.5615 0.7437,4.9772 1.3448,17.0553 1.3448,27.0218 l 0,18.0218 -3.3171,6.7372 c -3.6291,7.371 -6.6657,9.7192 -12.5681,9.7192 -6.4206,0 -10.9164,-2.9336 -14.2506,-9.2988 -0.8822,-1.6843 -2.0433,-9.4494 -2.9157,-19.5 -1.6367,-18.8569 -2.3415,-22.9929 -6.6801,-39.2012 -3.557,-13.2884 -6.7399,-20.28 -10.2921,-22.6075 -1.3795,-0.9038 -5.5246,-2.2757 -9.2114,-3.0485 -8.2189,-1.7228 -11.2247,-0.7626 -15.323,4.895 -6.345,8.7589 -9.2504,23.804 -10.9614,56.761 -0.6425,12.375 -1.7844,24.7625 -2.5377,27.5278 -2.7875,10.2337 -12.6168,15.1558 -21.4088,10.7206 z m 160,-15 c -4.6712,-2.3564 -6.5916,-6.0561 -9.2471,-17.8149 -2.0131,-8.914 -2.2397,-12.5508 -2.2077,-35.4335 0.041,-29.1826 1.2684,-38.4989 7.0444,-53.4631 10.6163,-27.5038 22.3311,-36.3228 52.678,-39.6559 14.9672,-1.6439 26.8062,1.2843 36.6207,9.0575 9.3466,7.4026 17.6679,32.3172 23.2329,69.5615 0.7437,4.9772 1.3448,17.0553 1.3448,27.0218 l 0,18.0218 -3.3171,6.7372 c -3.6291,7.371 -6.6657,9.7192 -12.5681,9.7192 -6.4206,0 -10.9164,-2.9336 -14.2506,-9.2988 -0.8822,-1.6843 -2.0433,-9.4494 -2.9157,-19.5 -1.6367,-18.8569 -2.3415,-22.9929 -6.6801,-39.2012 -3.557,-13.2884 -6.7399,-20.28 -10.2921,-22.6075 -1.3795,-0.9038 -5.5246,-2.2757 -9.2114,-3.0485 -8.2189,-1.7228 -11.2247,-0.7626 -15.323,4.895 -6.345,8.7589 -9.2504,23.804 -10.9614,56.761 -0.6425,12.375 -1.7844,24.7625 -2.5377,27.5278 -2.7875,10.2337 -12.6168,15.1558 -21.4088,10.7206 z"
       id="path3921"
       inkscape:connector-curvature="0" />
  </g>
</svg>
